  0
SECTION
  2
HEADER
  9
$ACADVER
  1
AC1014
  9
$ACADMAINTVER
 70
     9
  9
$DWGCODEPAGE
  3
MAC-ROMAN
  9
$INSBASE
 10
0.0
 20
0.0
 30
0.0
  9
$EXTMIN
 10
111.769765613944
 20
-69.43138213633418
 30
0.0
  9
$EXTMAX
 10
290.8700851859118
 20
150.8636793868237
 30
0.0
  9
$LIMMIN
 10
0.0
 20
0.0
  9
$LIMMAX
 10
12.0
 20
9.0
  9
$ORTHOMODE
 70
     0
  9
$REGENMODE
 70
     1
  9
$FILLMODE
 70
     1
  9
$QTEXTMODE
 70
     0
  9
$MIRRTEXT
 70
     1
  9
$DRAGMODE
 70
     2
  9
$LTSCALE
 40
1.0
  9
$OSMODE
 70
    37
  9
$ATTMODE
 70
     1
  9
$TEXTSIZE
 40
0.2
  9
$TRACEWID
 40
0.05
  9
$TEXTSTYLE
  7
STANDARD
  9
$CLAYER
  8
0
  9
$CELTYPE
  6
BYLAYER
  9
$CECOLOR
 62
   256
  9
$CELTSCALE
 40
1.0
  9
$DELOBJ
 70
     1
  9
$DISPSILH
 70
     0
  9
$DIMSCALE
 40
1.0
  9
$DIMASZ
 40
0.18
  9
$DIMEXO
 40
0.0625
  9
$DIMDLI
 40
0.38
  9
$DIMRND
 40
0.0
  9
$DIMDLE
 40
0.0
  9
$DIMEXE
 40
0.18
  9
$DIMTP
 40
0.0
  9
$DIMTM
 40
0.0
  9
$DIMTXT
 40
0.18
  9
$DIMCEN
 40
0.09
  9
$DIMTSZ
 40
0.0
  9
$DIMTOL
 70
     0
  9
$DIMLIM
 70
     0
  9
$DIMTIH
 70
     1
  9
$DIMTOH
 70
     1
  9
$DIMSE1
 70
     0
  9
$DIMSE2
 70
     0
  9
$DIMTAD
 70
     0
  9
$DIMZIN
 70
     0
  9
$DIMBLK
  1

  9
$DIMASO
 70
     1
  9
$DIMSHO
 70
     1
  9
$DIMPOST
  1

  9
$DIMAPOST
  1

  9
$DIMALT
 70
     0
  9
$DIMALTD
 70
     2
  9
$DIMALTF
 40
25.4
  9
$DIMLFAC
 40
1.0
  9
$DIMTOFL
 70
     0
  9
$DIMTVP
 40
0.0
  9
$DIMTIX
 70
     0
  9
$DIMSOXD
 70
     0
  9
$DIMSAH
 70
     0
  9
$DIMBLK1
  1

  9
$DIMBLK2
  1

  9
$DIMSTYLE
  2
STANDARD
  9
$DIMCLRD
 70
     0
  9
$DIMCLRE
 70
     0
  9
$DIMCLRT
 70
     0
  9
$DIMTFAC
 40
1.0
  9
$DIMGAP
 40
0.09
  9
$DIMJUST
 70
     0
  9
$DIMSD1
 70
     0
  9
$DIMSD2
 70
     0
  9
$DIMTOLJ
 70
     1
  9
$DIMTZIN
 70
     0
  9
$DIMALTZ
 70
     0
  9
$DIMALTTZ
 70
     0
  9
$DIMFIT
 70
     5
  9
$DIMUPT
 70
     0
  9
$DIMUNIT
 70
     2
  9
$DIMDEC
 70
     4
  9
$DIMTDEC
 70
     4
  9
$DIMALTU
 70
     2
  9
$DIMALTTD
 70
     2
  9
$DIMTXSTY
  7
STANDARD
  9
$DIMAUNIT
 70
     0
  9
$LUNITS
 70
     2
  9
$LUPREC
 70
     4
  9
$SKETCHINC
 40
0.1
  9
$FILLETRAD
 40
0.5
  9
$AUNITS
 70
     0
  9
$AUPREC
 70
     0
  9
$MENU
  1
.
  9
$ELEVATION
 40
0.0
  9
$PELEVATION
 40
0.0
  9
$THICKNESS
 40
0.0
  9
$LIMCHECK
 70
     0
  9
$CHAMFERA
 40
0.0
  9
$CHAMFERB
 40
0.0
  9
$CHAMFERC
 40
0.0
  9
$CHAMFERD
 40
0.0
  9
$SKPOLY
 70
     0
  9
$TDCREATE
 40
2456548.536296296
  9
$TDUPDATE
 40
2456548.536365741
  9
$TDINDWG
 40
0.0000000116
  9
$TDUSRTIMER
 40
0.0000000116
  9
$USRTIMER
 70
     1
  9
$ANGBASE
 50
0.0
  9
$ANGDIR
 70
     0
  9
$PDMODE
 70
     0
  9
$PDSIZE
 40
0.0
  9
$PLINEWID
 40
0.0
  9
$COORDS
 70
     1
  9
$SPLFRAME
 70
     0
  9
$SPLINETYPE
 70
     6
  9
$SPLINESEGS
 70
     8
  9
$ATTDIA
 70
     0
  9
$ATTREQ
 70
     1
  9
$HANDLING
 70
     1
  9
$HANDSEED
  5
1A9
  9
$SURFTAB1
 70
     6
  9
$SURFTAB2
 70
     6
  9
$SURFTYPE
 70
     6
  9
$SURFU
 70
     6
  9
$SURFV
 70
     6
  9
$UCSNAME
  2

  9
$UCSORG
 10
0.0
 20
0.0
 30
0.0
  9
$UCSXDIR
 10
1.0
 20
0.0
 30
0.0
  9
$UCSYDIR
 10
0.0
 20
1.0
 30
0.0
  9
$PUCSNAME
  2

  9
$PUCSORG
 10
0.0
 20
0.0
 30
0.0
  9
$PUCSXDIR
 10
1.0
 20
0.0
 30
0.0
  9
$PUCSYDIR
 10
0.0
 20
1.0
 30
0.0
  9
$USERI1
 70
     0
  9
$USERI2
 70
     0
  9
$USERI3
 70
     0
  9
$USERI4
 70
     0
  9
$USERI5
 70
     0
  9
$USERR1
 40
0.0
  9
$USERR2
 40
0.0
  9
$USERR3
 40
0.0
  9
$USERR4
 40
0.0
  9
$USERR5
 40
0.0
  9
$WORLDVIEW
 70
     1
  9
$SHADEDGE
 70
     3
  9
$SHADEDIF
 70
    70
  9
$TILEMODE
 70
     1
  9
$MAXACTVP
 70
    64
  9
$PINSBASE
 10
0.0
 20
0.0
 30
0.0
  9
$PLIMCHECK
 70
     0
  9
$PEXTMIN
 10
1.000000000000000E+20
 20
1.000000000000000E+20
 30
1.000000000000000E+20
  9
$PEXTMAX
 10
-1.000000000000000E+20
 20
-1.000000000000000E+20
 30
-1.000000000000000E+20
  9
$PLIMMIN
 10
0.0
 20
0.0
  9
$PLIMMAX
 10
12.0
 20
9.0
  9
$UNITMODE
 70
     0
  9
$VISRETAIN
 70
     1
  9
$PLINEGEN
 70
     0
  9
$PSLTSCALE
 70
     1
  9
$TREEDEPTH
 70
  3020
  9
$PICKSTYLE
 70
     1
  9
$CMLSTYLE
  2
STANDARD
  9
$CMLJUST
 70
     0
  9
$CMLSCALE
 40
1.0
  9
$PROXYGRAPHICS
 70
     1
  9
$MEASUREMENT
 70
     0
  0
ENDSEC
  0
SECTION
  2
CLASSES
  0
CLASS
  1
ACDBDICTIONARYWDFLT
  2
AcDbDictionaryWithDefault
  3
ObjectDBX Classes
 90
        0
280
     0
281
     0
  0
CLASS
  1
VISUALSTYLE
  2
AcDbVisualStyle
  3
ObjectDBX Classes
 90
     4095
280
     0
281
     0
  0
CLASS
  1
MATERIAL
  2
AcDbMaterial
  3
ObjectDBX Classes
 90
     1153
280
     0
281
     0
  0
CLASS
  1
SCALE
  2
AcDbScale
  3
ObjectDBX Classes
 90
     1153
280
     0
281
     0
  0
CLASS
  1
SUN
  2
AcDbSun
  3
SCENEOE
 90
     1153
280
     0
281
     0
  0
CLASS
  1
DICTIONARYVAR
  2
AcDbDictionaryVar
  3
ObjectDBX Classes
 90
        0
280
     0
281
     0
  0
CLASS
  1
XRECORD
  2
AcDbXrecord
  3
ObjectDBX Classes
 90
        0
280
     0
281
     0
  0
CLASS
  1
LWPOLYLINE
  2
AcDbPolyline
  3
ObjectDBX Classes
 90
        0
280
     0
281
     1
  0
CLASS
  1
HATCH
  2
AcDbHatch
  3
ObjectDBX Classes
 90
        0
280
     0
281
     1
  0
CLASS
  1
ACDBPLACEHOLDER
  2
AcDbPlaceHolder
  3
ObjectDBX Classes
 90
        0
280
     0
281
     0
  0
CLASS
  1
LAYOUT
  2
AcDbLayout
  3
ObjectDBX Classes
 90
        0
280
     0
281
     0
  0
ENDSEC
  0
SECTION
  2
TABLES
  0
TABLE
  2
VPORT
  5
8
102
{ACAD_XDICTIONARY
360
19F
102
}
330
0
100
AcDbSymbolTable
 70
     1
  0
VPORT
  5
29
330
8
100
AcDbSymbolTableRecord
100
AcDbViewportTableRecord
  2
*ACTIVE
 70
     0
 10
0.0
 20
0.0
 11
1.0
 21
1.0
 12
201.3199253999279
 22
40.71614862524478
 13
0.0
 23
0.0
 14
0.5
 24
0.5
 15
0.5
 25
0.5
 16
0.0
 26
0.0
 36
1.0
 17
0.0
 27
0.0
 37
0.0
 40
224.7009627536211
 41
0.8130019725981936
 42
50.0
 43
0.0
 44
0.0
 50
0.0
 51
0.0
 71
     0
 72
   100
 73
     1
 74
     3
 75
     0
 76
     0
 77
     0
 78
     0
  0
ENDTAB
  0
TABLE
  2
LTYPE
  5
5
330
0
100
AcDbSymbolTable
 70
     1
  0
LTYPE
  5
14
330
5
100
AcDbSymbolTableRecord
100
AcDbLinetypeTableRecord
  2
BYBLOCK
 70
     0
  3

 72
    65
 73
     0
 40
0.0
  0
LTYPE
  5
15
330
5
100
AcDbSymbolTableRecord
100
AcDbLinetypeTableRecord
  2
BYLAYER
 70
     0
  3

 72
    65
 73
     0
 40
0.0
  0
LTYPE
  5
16
330
5
100
AcDbSymbolTableRecord
100
AcDbLinetypeTableRecord
  2
CONTINUOUS
 70
     0
  3
Solid line
 72
    65
 73
     0
 40
0.0
  0
ENDTAB
  0
TABLE
  2
LAYER
  5
2
330
0
100
AcDbSymbolTable
 70
     2
  0
LAYER
  5
10
330
2
100
AcDbSymbolTableRecord
100
AcDbLayerTableRecord
  2
0
 70
     0
 62
     7
  6
CONTINUOUS
  0
LAYER
  5
6A
330
2
100
AcDbSymbolTableRecord
100
AcDbLayerTableRecord
  2
MAKE2D$VISIBLE$LINES
 70
     0
 62
   178
  6
CONTINUOUS
  0
ENDTAB
  0
TABLE
  2
STYLE
  5
3
330
0
100
AcDbSymbolTable
 70
     1
  0
STYLE
  5
11
330
3
100
AcDbSymbolTableRecord
100
AcDbTextStyleTableRecord
  2
STANDARD
 70
     0
 40
0.0
 41
1.0
 50
0.0
 71
     0
 42
0.2
  3
txt
  4

  0
ENDTAB
  0
TABLE
  2
VIEW
  5
6
330
0
100
AcDbSymbolTable
 70
     0
  0
ENDTAB
  0
TABLE
  2
UCS
  5
7
330
0
100
AcDbSymbolTable
 70
     0
  0
ENDTAB
  0
TABLE
  2
APPID
  5
9
330
0
100
AcDbSymbolTable
 70
     1
  0
APPID
  5
12
330
9
100
AcDbSymbolTableRecord
100
AcDbRegAppTableRecord
  2
ACAD
 70
     0
  0
ENDTAB
  0
TABLE
  2
DIMSTYLE
  5
A
330
0
100
AcDbSymbolTable
 70
     1
  0
DIMSTYLE
105
27
330
A
100
AcDbSymbolTableRecord
100
AcDbDimStyleTableRecord
  2
STANDARD
 70
     0
  3

  4

  5

  6

  7

 40
1.0
 41
0.18
 42
0.0625
 43
0.38
 44
0.18
 45
0.0
 46
0.0
 47
0.0
 48
0.0
140
0.18
141
0.09
142
0.0
143
25.4
144
1.0
145
0.0
146
1.0
147
0.09
 71
     0
 72
     0
 73
     1
 74
     1
 75
     0
 76
     0
 77
     0
 78
     0
170
     0
171
     2
172
     0
173
     0
174
     0
175
     0
176
     0
177
     0
178
     0
270
     2
271
     4
272
     4
273
     2
274
     2
340
11
275
     0
280
     0
281
     0
282
     0
283
     1
284
     0
285
     0
286
     0
287
     3
288
     0
  0
ENDTAB
  0
TABLE
  2
BLOCK_RECORD
  5
1
330
0
100
AcDbSymbolTable
 70
     1
  0
BLOCK_RECORD
  5
1F
330
1
100
AcDbSymbolTableRecord
100
AcDbBlockTableRecord
  2
*MODEL_SPACE
  0
BLOCK_RECORD
  5
1B
330
1
100
AcDbSymbolTableRecord
100
AcDbBlockTableRecord
  2
*PAPER_SPACE
  0
ENDTAB
  0
ENDSEC
  0
SECTION
  2
BLOCKS
  0
BLOCK
  5
20
330
1F
100
AcDbEntity
  8
0
100
AcDbBlockBegin
  2
*MODEL_SPACE
 70
     0
 10
0.0
 20
0.0
 30
0.0
  3
*MODEL_SPACE
  1

  0
ENDBLK
  5
21
330
1F
100
AcDbEntity
  8
0
100
AcDbBlockEnd
  0
BLOCK
  5
1C
330
1B
100
AcDbEntity
 67
     1
  8
0
100
AcDbBlockBegin
  2
*PAPER_SPACE
 70
     0
 10
0.0
 20
0.0
 30
0.0
  3
*PAPER_SPACE
  1

  0
ENDBLK
  5
1D
330
1B
100
AcDbEntity
 67
     1
  8
0
100
AcDbBlockEnd
  0
ENDSEC
  0
SECTION
  2
ENTITIES
  0
POLYLINE
  5
6B
330
1F
100
AcDbEntity
  8
MAKE2D$VISIBLE$LINES
100
AcDb2dPolyline
 66
     1
 10
0.0
 20
0.0
 30
0.0
  0
VERTEX
  5
6C
330
6B
100
AcDbEntity
  8
MAKE2D$VISIBLE$LINES
100
AcDbVertex
100
AcDb2dVertex
 10
189.4461741562186
 20
133.8636793868237
 30
0.0
  0
VERTEX
  5
6D
330
6B
100
AcDbEntity
  8
MAKE2D$VISIBLE$LINES
100
AcDbVertex
100
AcDb2dVertex
 10
189.4461741562186
 20
134.8636793868237
 30
0.0
  0
VERTEX
  5
6E
330
6B
100
AcDbEntity
  8
MAKE2D$VISIBLE$LINES
100
AcDbVertex
100
AcDb2dVertex
 10
209.4461741562186
 20
134.8636793868237
 30
0.0
  0
VERTEX
  5
6F
330
6B
100
AcDbEntity
  8
MAKE2D$VISIBLE$LINES
100
AcDbVertex
100
AcDb2dVertex
 10
209.4461741562186
 20
124.8636793868237
 30
0.0
  0
VERTEX
  5
70
330
6B
100
AcDbEntity
  8
MAKE2D$VISIBLE$LINES
100
AcDbVertex
100
AcDb2dVertex
 10
189.4461741562186
 20
124.8636793868237
 30
0.0
  0
VERTEX
  5
71
330
6B
100
AcDbEntity
  8
MAKE2D$VISIBLE$LINES
100
AcDbVertex
100
AcDb2dVertex
 10
189.4461741562186
 20
133.8636793868237
 30
0.0
  0
SEQEND
  5
72
330
6B
100
AcDbEntity
  8
MAKE2D$VISIBLE$LINES
  0
LINE
  5
73
330
1F
100
AcDbEntity
  8
MAKE2D$VISIBLE$LINES
100
AcDbLine
 10
243.4461741562186
 20
121.8636793868237
 30
0.0
 11
247.4461741562186
 21
121.8636793868237
 31
0.0
  0
LINE
  5
74
330
1F
100
AcDbEntity
  8
MAKE2D$VISIBLE$LINES
100
AcDbLine
 10
247.4461741562186
 20
121.8636793868237
 30
0.0
 11
247.4461741562186
 21
113.8636793868237
 31
0.0
  0
LINE
  5
75
330
1F
100
AcDbEntity
  8
MAKE2D$VISIBLE$LINES
100
AcDbLine
 10
247.4461741562186
 20
113.8636793868237
 30
0.0
 11
243.4461741562186
 21
113.8636793868237
 31
0.0
  0
LINE
  5
76
330
1F
100
AcDbEntity
  8
MAKE2D$VISIBLE$LINES
100
AcDbLine
 10
243.4461741562186
 20
113.8636793868237
 30
0.0
 11
243.4461741562186
 21
109.8636793868237
 31
0.0
  0
LINE
  5
77
330
1F
100
AcDbEntity
  8
MAKE2D$VISIBLE$LINES
100
AcDbLine
 10
243.4461741562186
 20
109.8636793868237
 30
0.0
 11
205.845153641785
 21
109.8636793868237
 31
0.0
  0
ARC
  5
78
330
1F
100
AcDbEntity
  8
MAKE2D$VISIBLE$LINES
100
AcDbCircle
 10
200.9461741562187
 20
108.8636793868237
 30
0.0
 40
5.000000000000019
100
AcDbArc
 50
11.53695903281561
 51
168.4630409671846
  0
LINE
  5
79
330
1F
100
AcDbEntity
  8
MAKE2D$VISIBLE$LINES
100
AcDbLine
 10
196.0471946706522
 20
109.8636793868237
 30
0.0
 11
158.4461741562186
 21
109.8636793868237
 31
0.0
  0
LINE
  5
7A
330
1F
100
AcDbEntity
  8
MAKE2D$VISIBLE$LINES
100
AcDbLine
 10
158.4461741562186
 20
109.8636793868237
 30
0.0
 11
158.4461741562186
 21
113.8636793868237
 31
0.0
  0
LINE
  5
7B
330
1F
100
AcDbEntity
  8
MAKE2D$VISIBLE$LINES
100
AcDbLine
 10
158.4461741562186
 20
113.8636793868237
 30
0.0
 11
154.4461741562186
 21
113.8636793868237
 31
0.0
  0
LINE
  5
7C
330
1F
100
AcDbEntity
  8
MAKE2D$VISIBLE$LINES
100
AcDbLine
 10
154.4461741562186
 20
113.8636793868237
 30
0.0
 11
154.4461741562186
 21
121.8636793868237
 31
0.0
  0
LINE
  5
7D
330
1F
100
AcDbEntity
  8
MAKE2D$VISIBLE$LINES
100
AcDbLine
 10
154.4461741562186
 20
121.8636793868237
 30
0.0
 11
158.4461741562186
 21
121.8636793868237
 31
0.0
  0
LINE
  5
7E
330
1F
100
AcDbEntity
  8
MAKE2D$VISIBLE$LINES
100
AcDbLine
 10
158.4461741562186
 20
121.8636793868237
 30
0.0
 11
158.4461741562186
 21
134.8636793868237
 31
0.0
  0
LINE
  5
7F
330
1F
100
AcDbEntity
  8
MAKE2D$VISIBLE$LINES
100
AcDbLine
 10
158.4461741562186
 20
134.8636793868237
 30
0.0
 11
154.4461741562186
 21
134.8636793868237
 31
0.0
  0
LINE
  5
80
330
1F
100
AcDbEntity
  8
MAKE2D$VISIBLE$LINES
100
AcDbLine
 10
154.4461741562186
 20
134.8636793868237
 30
0.0
 11
154.4461741562186
 21
142.8636793868237
 31
0.0
  0
LINE
  5
81
330
1F
100
AcDbEntity
  8
MAKE2D$VISIBLE$LINES
100
AcDbLine
 10
154.4461741562186
 20
142.8636793868237
 30
0.0
 11
158.4461741562186
 21
142.8636793868237
 31
0.0
  0
LINE
  5
82
330
1F
100
AcDbEntity
  8
MAKE2D$VISIBLE$LINES
100
AcDbLine
 10
158.4461741562186
 20
142.8636793868237
 30
0.0
 11
158.4461741562186
 21
146.8636793868237
 31
0.0
  0
LINE
  5
83
330
1F
100
AcDbEntity
  8
MAKE2D$VISIBLE$LINES
100
AcDbLine
 10
158.4461741562186
 20
146.8636793868237
 30
0.0
 11
196.0471946706522
 21
146.8636793868237
 31
0.0
  0
ARC
  5
84
330
1F
100
AcDbEntity
  8
MAKE2D$VISIBLE$LINES
100
AcDbCircle
 10
200.9461741562187
 20
145.8636793868237
 30
0.0
 40
5.000000000000076
100
AcDbArc
 50
11.53695903281596
 51
168.4630409671844
  0
LINE
  5
85
330
1F
100
AcDbEntity
  8
MAKE2D$VISIBLE$LINES
100
AcDbLine
 10
205.845153641785
 20
146.8636793868237
 30
0.0
 11
243.4461741562186
 21
146.8636793868237
 31
0.0
  0
LINE
  5
86
330
1F
100
AcDbEntity
  8
MAKE2D$VISIBLE$LINES
100
AcDbLine
 10
243.4461741562186
 20
146.8636793868237
 30
0.0
 11
243.4461741562186
 21
142.8636793868237
 31
0.0
  0
LINE
  5
87
330
1F
100
AcDbEntity
  8
MAKE2D$VISIBLE$LINES
100
AcDbLine
 10
243.4461741562186
 20
142.8636793868237
 30
0.0
 11
247.4461741562186
 21
142.8636793868237
 31
0.0
  0
LINE
  5
88
330
1F
100
AcDbEntity
  8
MAKE2D$VISIBLE$LINES
100
AcDbLine
 10
247.4461741562186
 20
142.8636793868237
 30
0.0
 11
247.4461741562186
 21
134.8636793868237
 31
0.0
  0
LINE
  5
89
330
1F
100
AcDbEntity
  8
MAKE2D$VISIBLE$LINES
100
AcDbLine
 10
247.4461741562186
 20
134.8636793868237
 30
0.0
 11
243.4461741562186
 21
134.8636793868237
 31
0.0
  0
LINE
  5
8A
330
1F
100
AcDbEntity
  8
MAKE2D$VISIBLE$LINES
100
AcDbLine
 10
243.4461741562186
 20
134.8636793868237
 30
0.0
 11
243.4461741562186
 21
121.8636793868237
 31
0.0
  0
POLYLINE
  5
8B
330
1F
100
AcDbEntity
  8
MAKE2D$VISIBLE$LINES
100
AcDb2dPolyline
 66
     1
 10
0.0
 20
0.0
 30
0.0
  0
VERTEX
  5
8C
330
8B
100
AcDbEntity
  8
MAKE2D$VISIBLE$LINES
100
AcDbVertex
100
AcDb2dVertex
 10
223.4461741562186
 20
117.8636793868237
 30
0.0
  0
VERTEX
  5
8D
330
8B
100
AcDbEntity
  8
MAKE2D$VISIBLE$LINES
100
AcDbVertex
100
AcDb2dVertex
 10
223.4461741562186
 20
113.8636793868237
 30
0.0
  0
VERTEX
  5
8E
330
8B
100
AcDbEntity
  8
MAKE2D$VISIBLE$LINES
100
AcDbVertex
100
AcDb2dVertex
 10
211.4461741562186
 20
113.8636793868237
 30
0.0
  0
VERTEX
  5
8F
330
8B
100
AcDbEntity
  8
MAKE2D$VISIBLE$LINES
100
AcDbVertex
100
AcDb2dVertex
 10
211.4461741562186
 20
117.8636793868237
 30
0.0
  0
VERTEX
  5
90
330
8B
100
AcDbEntity
  8
MAKE2D$VISIBLE$LINES
100
AcDbVertex
100
AcDb2dVertex
 10
223.4461741562186
 20
117.8636793868237
 30
0.0
  0
SEQEND
  5
91
330
8B
100
AcDbEntity
  8
MAKE2D$VISIBLE$LINES
  0
POLYLINE
  5
92
330
1F
100
AcDbEntity
  8
MAKE2D$VISIBLE$LINES
100
AcDb2dPolyline
 66
     1
 10
0.0
 20
0.0
 30
0.0
  0
VERTEX
  5
93
330
92
100
AcDbEntity
  8
MAKE2D$VISIBLE$LINES
100
AcDbVertex
100
AcDb2dVertex
 10
178.4461741562186
 20
113.8636793868237
 30
0.0
  0
VERTEX
  5
94
330
92
100
AcDbEntity
  8
MAKE2D$VISIBLE$LINES
100
AcDbVertex
100
AcDb2dVertex
 10
178.4461741562186
 20
117.8636793868237
 30
0.0
  0
VERTEX
  5
95
330
92
100
AcDbEntity
  8
MAKE2D$VISIBLE$LINES
100
AcDbVertex
100
AcDb2dVertex
 10
190.4461741562186
 20
117.8636793868237
 30
0.0
  0
VERTEX
  5
96
330
92
100
AcDbEntity
  8
MAKE2D$VISIBLE$LINES
100
AcDbVertex
100
AcDb2dVertex
 10
190.4461741562186
 20
113.8636793868237
 30
0.0
  0
VERTEX
  5
97
330
92
100
AcDbEntity
  8
MAKE2D$VISIBLE$LINES
100
AcDbVertex
100
AcDb2dVertex
 10
178.4461741562186
 20
113.8636793868237
 30
0.0
  0
SEQEND
  5
98
330
92
100
AcDbEntity
  8
MAKE2D$VISIBLE$LINES
  0
POLYLINE
  5
99
330
1F
100
AcDbEntity
  8
MAKE2D$VISIBLE$LINES
100
AcDb2dPolyline
 66
     1
 10
0.0
 20
0.0
 30
0.0
  0
VERTEX
  5
9A
330
99
100
AcDbEntity
  8
MAKE2D$VISIBLE$LINES
100
AcDbVertex
100
AcDb2dVertex
 10
178.4461741562186
 20
142.8636793868237
 30
0.0
  0
VERTEX
  5
9B
330
99
100
AcDbEntity
  8
MAKE2D$VISIBLE$LINES
100
AcDbVertex
100
AcDb2dVertex
 10
178.4461741562186
 20
138.8636793868237
 30
0.0
  0
VERTEX
  5
9C
330
99
100
AcDbEntity
  8
MAKE2D$VISIBLE$LINES
100
AcDbVertex
100
AcDb2dVertex
 10
190.4461741562186
 20
138.8636793868237
 30
0.0
  0
VERTEX
  5
9D
330
99
100
AcDbEntity
  8
MAKE2D$VISIBLE$LINES
100
AcDbVertex
100
AcDb2dVertex
 10
190.4461741562186
 20
142.8636793868237
 30
0.0
  0
VERTEX
  5
9E
330
99
100
AcDbEntity
  8
MAKE2D$VISIBLE$LINES
100
AcDbVertex
100
AcDb2dVertex
 10
178.4461741562186
 20
142.8636793868237
 30
0.0
  0
SEQEND
  5
9F
330
99
100
AcDbEntity
  8
MAKE2D$VISIBLE$LINES
  0
POLYLINE
  5
A0
330
1F
100
AcDbEntity
  8
MAKE2D$VISIBLE$LINES
100
AcDb2dPolyline
 66
     1
 10
0.0
 20
0.0
 30
0.0
  0
VERTEX
  5
A1
330
A0
100
AcDbEntity
  8
MAKE2D$VISIBLE$LINES
100
AcDbVertex
100
AcDb2dVertex
 10
223.4461741562186
 20
138.8636793868237
 30
0.0
  0
VERTEX
  5
A2
330
A0
100
AcDbEntity
  8
MAKE2D$VISIBLE$LINES
100
AcDbVertex
100
AcDb2dVertex
 10
223.4461741562186
 20
142.8636793868237
 30
0.0
  0
VERTEX
  5
A3
330
A0
100
AcDbEntity
  8
MAKE2D$VISIBLE$LINES
100
AcDbVertex
100
AcDb2dVertex
 10
211.4461741562186
 20
142.8636793868237
 30
0.0
  0
VERTEX
  5
A4
330
A0
100
AcDbEntity
  8
MAKE2D$VISIBLE$LINES
100
AcDbVertex
100
AcDb2dVertex
 10
211.4461741562186
 20
138.8636793868237
 30
0.0
  0
VERTEX
  5
A5
330
A0
100
AcDbEntity
  8
MAKE2D$VISIBLE$LINES
100
AcDbVertex
100
AcDb2dVertex
 10
223.4461741562186
 20
138.8636793868237
 30
0.0
  0
SEQEND
  5
A6
330
A0
100
AcDbEntity
  8
MAKE2D$VISIBLE$LINES
  0
CIRCLE
  5
A7
330
1F
100
AcDbEntity
  8
MAKE2D$VISIBLE$LINES
100
AcDbCircle
 10
203.0786841193749
 20
-43.93138213633421
 30
0.0
 40
4.999999999999972
  0
CIRCLE
  5
A8
330
1F
100
AcDbEntity
  8
MAKE2D$VISIBLE$LINES
100
AcDbCircle
 10
184.5786841193748
 20
-45.43138213633424
 30
0.0
 40
4.0
  0
LINE
  5
A9
330
1F
100
AcDbEntity
  8
MAKE2D$VISIBLE$LINES
100
AcDbLine
 10
248.5786841193748
 20
-40.43138213633419
 30
0.0
 11
252.5786841193748
 21
-40.43138213633419
 31
0.0
  0
LINE
  5
AA
330
1F
100
AcDbEntity
  8
MAKE2D$VISIBLE$LINES
100
AcDbLine
 10
252.5786841193748
 20
-40.43138213633419
 30
0.0
 11
252.5786841193748
 21
-32.43138213633419
 31
0.0
  0
LINE
  5
AB
330
1F
100
AcDbEntity
  8
MAKE2D$VISIBLE$LINES
100
AcDbLine
 10
252.5786841193748
 20
-32.43138213633419
 30
0.0
 11
248.5786841193748
 21
-32.43138213633419
 31
0.0
  0
LINE
  5
AC
330
1F
100
AcDbEntity
  8
MAKE2D$VISIBLE$LINES
100
AcDbLine
 10
248.5786841193748
 20
-32.43138213633419
 30
0.0
 11
248.5786841193748
 21
-28.43138213633419
 31
0.0
  0
LINE
  5
AD
330
1F
100
AcDbEntity
  8
MAKE2D$VISIBLE$LINES
100
AcDbLine
 10
248.5786841193748
 20
-28.43138213633419
 30
0.0
 11
210.9776636049413
 21
-28.43138213633419
 31
0.0
  0
ARC
  5
AE
330
1F
100
AcDbEntity
  8
MAKE2D$VISIBLE$LINES
100
AcDbCircle
 10
206.0786841193748
 20
-27.43138213633411
 30
0.0
 40
5.000000000000086
100
AcDbArc
 50
191.5369590328163
 51
348.4630409671838
  0
LINE
  5
AF
330
1F
100
AcDbEntity
  8
MAKE2D$VISIBLE$LINES
100
AcDbLine
 10
201.1797046338084
 20
-28.43138213633419
 30
0.0
 11
163.5786841193748
 21
-28.43138213633419
 31
0.0
  0
LINE
  5
B0
330
1F
100
AcDbEntity
  8
MAKE2D$VISIBLE$LINES
100
AcDbLine
 10
163.5786841193748
 20
-28.43138213633419
 30
0.0
 11
163.5786841193748
 21
-32.43138213633419
 31
0.0
  0
LINE
  5
B1
330
1F
100
AcDbEntity
  8
MAKE2D$VISIBLE$LINES
100
AcDbLine
 10
163.5786841193748
 20
-32.43138213633419
 30
0.0
 11
159.5786841193748
 21
-32.43138213633419
 31
0.0
  0
LINE
  5
B2
330
1F
100
AcDbEntity
  8
MAKE2D$VISIBLE$LINES
100
AcDbLine
 10
159.5786841193748
 20
-32.43138213633419
 30
0.0
 11
159.5786841193748
 21
-40.43138213633419
 31
0.0
  0
LINE
  5
B3
330
1F
100
AcDbEntity
  8
MAKE2D$VISIBLE$LINES
100
AcDbLine
 10
159.5786841193748
 20
-40.43138213633419
 30
0.0
 11
163.5786841193748
 21
-40.43138213633419
 31
0.0
  0
LINE
  5
B4
330
1F
100
AcDbEntity
  8
MAKE2D$VISIBLE$LINES
100
AcDbLine
 10
163.5786841193748
 20
-40.43138213633419
 30
0.0
 11
163.5786841193748
 21
-53.43138213633419
 31
0.0
  0
LINE
  5
B5
330
1F
100
AcDbEntity
  8
MAKE2D$VISIBLE$LINES
100
AcDbLine
 10
163.5786841193748
 20
-53.43138213633419
 30
0.0
 11
159.5786841193748
 21
-53.43138213633419
 31
0.0
  0
LINE
  5
B6
330
1F
100
AcDbEntity
  8
MAKE2D$VISIBLE$LINES
100
AcDbLine
 10
159.5786841193748
 20
-53.43138213633419
 30
0.0
 11
159.5786841193748
 21
-61.43138213633419
 31
0.0
  0
LINE
  5
B7
330
1F
100
AcDbEntity
  8
MAKE2D$VISIBLE$LINES
100
AcDbLine
 10
159.5786841193748
 20
-61.43138213633419
 30
0.0
 11
163.5786841193748
 21
-61.43138213633419
 31
0.0
  0
LINE
  5
B8
330
1F
100
AcDbEntity
  8
MAKE2D$VISIBLE$LINES
100
AcDbLine
 10
163.5786841193748
 20
-61.43138213633419
 30
0.0
 11
163.5786841193748
 21
-65.43138213633418
 31
0.0
  0
LINE
  5
B9
330
1F
100
AcDbEntity
  8
MAKE2D$VISIBLE$LINES
100
AcDbLine
 10
163.5786841193748
 20
-65.43138213633418
 30
0.0
 11
201.1797046338084
 21
-65.4313821363342
 31
0.0
  0
ARC
  5
BA
330
1F
100
AcDbEntity
  8
MAKE2D$VISIBLE$LINES
100
AcDbCircle
 10
206.0786841193748
 20
-64.43138213633412
 30
0.0
 40
5.000000000000057
100
AcDbArc
 50
191.5369590328162
 51
348.4630409671838
  0
LINE
  5
BB
330
1F
100
AcDbEntity
  8
MAKE2D$VISIBLE$LINES
100
AcDbLine
 10
210.9776636049412
 20
-65.4313821363342
 30
0.0
 11
248.5786841193748
 21
-65.43138213633418
 31
0.0
  0
LINE
  5
BC
330
1F
100
AcDbEntity
  8
MAKE2D$VISIBLE$LINES
100
AcDbLine
 10
248.5786841193748
 20
-65.43138213633418
 30
0.0
 11
248.5786841193748
 21
-61.43138213633419
 31
0.0
  0
LINE
  5
BD
330
1F
100
AcDbEntity
  8
MAKE2D$VISIBLE$LINES
100
AcDbLine
 10
248.5786841193748
 20
-61.43138213633419
 30
0.0
 11
252.5786841193748
 21
-61.43138213633419
 31
0.0
  0
LINE
  5
BE
330
1F
100
AcDbEntity
  8
MAKE2D$VISIBLE$LINES
100
AcDbLine
 10
252.5786841193748
 20
-61.43138213633419
 30
0.0
 11
252.5786841193748
 21
-53.43138213633419
 31
0.0
  0
LINE
  5
BF
330
1F
100
AcDbEntity
  8
MAKE2D$VISIBLE$LINES
100
AcDbLine
 10
252.5786841193748
 20
-53.43138213633419
 30
0.0
 11
248.5786841193748
 21
-53.43138213633419
 31
0.0
  0
LINE
  5
C0
330
1F
100
AcDbEntity
  8
MAKE2D$VISIBLE$LINES
100
AcDbLine
 10
248.5786841193748
 20
-53.43138213633419
 30
0.0
 11
248.5786841193748
 21
-40.43138213633419
 31
0.0
  0
POLYLINE
  5
C1
330
1F
100
AcDbEntity
  8
MAKE2D$VISIBLE$LINES
100
AcDb2dPolyline
 66
     1
 10
0.0
 20
0.0
 30
0.0
  0
VERTEX
  5
C2
330
C1
100
AcDbEntity
  8
MAKE2D$VISIBLE$LINES
100
AcDbVertex
100
AcDb2dVertex
 10
228.5786841193748
 20
-61.43138213633419
 30
0.0
  0
VERTEX
  5
C3
330
C1
100
AcDbEntity
  8
MAKE2D$VISIBLE$LINES
100
AcDbVertex
100
AcDb2dVertex
 10
228.5786841193748
 20
-57.43138213633419
 30
0.0
  0
VERTEX
  5
C4
330
C1
100
AcDbEntity
  8
MAKE2D$VISIBLE$LINES
100
AcDbVertex
100
AcDb2dVertex
 10
216.5786841193748
 20
-57.43138213633419
 30
0.0
  0
VERTEX
  5
C5
330
C1
100
AcDbEntity
  8
MAKE2D$VISIBLE$LINES
100
AcDbVertex
100
AcDb2dVertex
 10
216.5786841193748
 20
-61.43138213633419
 30
0.0
  0
VERTEX
  5
C6
330
C1
100
AcDbEntity
  8
MAKE2D$VISIBLE$LINES
100
AcDbVertex
100
AcDb2dVertex
 10
228.5786841193748
 20
-61.43138213633419
 30
0.0
  0
SEQEND
  5
C7
330
C1
100
AcDbEntity
  8
MAKE2D$VISIBLE$LINES
  0
POLYLINE
  5
C8
330
1F
100
AcDbEntity
  8
MAKE2D$VISIBLE$LINES
100
AcDb2dPolyline
 66
     1
 10
0.0
 20
0.0
 30
0.0
  0
VERTEX
  5
C9
330
C8
100
AcDbEntity
  8
MAKE2D$VISIBLE$LINES
100
AcDbVertex
100
AcDb2dVertex
 10
195.5786841193748
 20
-61.43138213633419
 30
0.0
  0
VERTEX
  5
CA
330
C8
100
AcDbEntity
  8
MAKE2D$VISIBLE$LINES
100
AcDbVertex
100
AcDb2dVertex
 10
195.5786841193748
 20
-57.43138213633419
 30
0.0
  0
VERTEX
  5
CB
330
C8
100
AcDbEntity
  8
MAKE2D$VISIBLE$LINES
100
AcDbVertex
100
AcDb2dVertex
 10
183.5786841193748
 20
-57.43138213633419
 30
0.0
  0
VERTEX
  5
CC
330
C8
100
AcDbEntity
  8
MAKE2D$VISIBLE$LINES
100
AcDbVertex
100
AcDb2dVertex
 10
183.5786841193748
 20
-61.43138213633419
 30
0.0
  0
VERTEX
  5
CD
330
C8
100
AcDbEntity
  8
MAKE2D$VISIBLE$LINES
100
AcDbVertex
100
AcDb2dVertex
 10
195.5786841193748
 20
-61.43138213633419
 30
0.0
  0
SEQEND
  5
CE
330
C8
100
AcDbEntity
  8
MAKE2D$VISIBLE$LINES
  0
POLYLINE
  5
CF
330
1F
100
AcDbEntity
  8
MAKE2D$VISIBLE$LINES
100
AcDb2dPolyline
 66
     1
 10
0.0
 20
0.0
 30
0.0
  0
VERTEX
  5
D0
330
CF
100
AcDbEntity
  8
MAKE2D$VISIBLE$LINES
100
AcDbVertex
100
AcDb2dVertex
 10
195.5786841193748
 20
-36.43138213633419
 30
0.0
  0
VERTEX
  5
D1
330
CF
100
AcDbEntity
  8
MAKE2D$VISIBLE$LINES
100
AcDbVertex
100
AcDb2dVertex
 10
195.5786841193748
 20
-32.43138213633419
 30
0.0
  0
VERTEX
  5
D2
330
CF
100
AcDbEntity
  8
MAKE2D$VISIBLE$LINES
100
AcDbVertex
100
AcDb2dVertex
 10
183.5786841193748
 20
-32.43138213633419
 30
0.0
  0
VERTEX
  5
D3
330
CF
100
AcDbEntity
  8
MAKE2D$VISIBLE$LINES
100
AcDbVertex
100
AcDb2dVertex
 10
183.5786841193748
 20
-36.43138213633419
 30
0.0
  0
VERTEX
  5
D4
330
CF
100
AcDbEntity
  8
MAKE2D$VISIBLE$LINES
100
AcDbVertex
100
AcDb2dVertex
 10
195.5786841193748
 20
-36.43138213633419
 30
0.0
  0
SEQEND
  5
D5
330
CF
100
AcDbEntity
  8
MAKE2D$VISIBLE$LINES
  0
POLYLINE
  5
D6
330
1F
100
AcDbEntity
  8
MAKE2D$VISIBLE$LINES
100
AcDb2dPolyline
 66
     1
 10
0.0
 20
0.0
 30
0.0
  0
VERTEX
  5
D7
330
D6
100
AcDbEntity
  8
MAKE2D$VISIBLE$LINES
100
AcDbVertex
100
AcDb2dVertex
 10
228.5786841193748
 20
-36.43138213633419
 30
0.0
  0
VERTEX
  5
D8
330
D6
100
AcDbEntity
  8
MAKE2D$VISIBLE$LINES
100
AcDbVertex
100
AcDb2dVertex
 10
228.5786841193748
 20
-32.43138213633419
 30
0.0
  0
VERTEX
  5
D9
330
D6
100
AcDbEntity
  8
MAKE2D$VISIBLE$LINES
100
AcDbVertex
100
AcDb2dVertex
 10
216.5786841193748
 20
-32.43138213633419
 30
0.0
  0
VERTEX
  5
DA
330
D6
100
AcDbEntity
  8
MAKE2D$VISIBLE$LINES
100
AcDbVertex
100
AcDb2dVertex
 10
216.5786841193748
 20
-36.43138213633419
 30
0.0
  0
VERTEX
  5
DB
330
D6
100
AcDbEntity
  8
MAKE2D$VISIBLE$LINES
100
AcDbVertex
100
AcDb2dVertex
 10
228.5786841193748
 20
-36.43138213633419
 30
0.0
  0
SEQEND
  5
DC
330
D6
100
AcDbEntity
  8
MAKE2D$VISIBLE$LINES
  0
POLYLINE
  5
DD
330
1F
100
AcDbEntity
  8
MAKE2D$VISIBLE$LINES
100
AcDb2dPolyline
 66
     1
 10
0.0
 20
0.0
 30
0.0
  0
VERTEX
  5
DE
330
DD
100
AcDbEntity
  8
MAKE2D$VISIBLE$LINES
100
AcDbVertex
100
AcDb2dVertex
 10
278.8700851859118
 20
86.83344114318365
 30
0.0
  0
VERTEX
  5
DF
330
DD
100
AcDbEntity
  8
MAKE2D$VISIBLE$LINES
100
AcDbVertex
100
AcDb2dVertex
 10
278.8700851859118
 20
56.83344114318365
 30
0.0
  0
VERTEX
  5
E0
330
DD
100
AcDbEntity
  8
MAKE2D$VISIBLE$LINES
100
AcDbVertex
100
AcDb2dVertex
 10
274.8700851859118
 20
56.83344114318366
 30
0.0
  0
VERTEX
  5
E1
330
DD
100
AcDbEntity
  8
MAKE2D$VISIBLE$LINES
100
AcDbVertex
100
AcDb2dVertex
 10
274.8700851859118
 20
86.83344114318365
 30
0.0
  0
VERTEX
  5
E2
330
DD
100
AcDbEntity
  8
MAKE2D$VISIBLE$LINES
100
AcDbVertex
100
AcDb2dVertex
 10
278.8700851859118
 20
86.83344114318365
 30
0.0
  0
SEQEND
  5
E3
330
DD
100
AcDbEntity
  8
MAKE2D$VISIBLE$LINES
  0
POLYLINE
  5
E4
330
1F
100
AcDbEntity
  8
MAKE2D$VISIBLE$LINES
100
AcDb2dPolyline
 66
     1
 10
0.0
 20
0.0
 30
0.0
  0
VERTEX
  5
E5
330
E4
100
AcDbEntity
  8
MAKE2D$VISIBLE$LINES
100
AcDbVertex
100
AcDb2dVertex
 10
276.8700851859118
 20
99.93344114318366
 30
0.0
  0
VERTEX
  5
E6
330
E4
100
AcDbEntity
  8
MAKE2D$VISIBLE$LINES
100
AcDbVertex
100
AcDb2dVertex
 10
276.8700851859118
 20
87.93344114318366
 30
0.0
  0
VERTEX
  5
E7
330
E4
100
AcDbEntity
  8
MAKE2D$VISIBLE$LINES
100
AcDbVertex
100
AcDb2dVertex
 10
266.8700851859118
 20
87.93344114318366
 30
0.0
  0
VERTEX
  5
E8
330
E4
100
AcDbEntity
  8
MAKE2D$VISIBLE$LINES
100
AcDbVertex
100
AcDb2dVertex
 10
266.8700851859118
 20
99.93344114318366
 30
0.0
  0
VERTEX
  5
E9
330
E4
100
AcDbEntity
  8
MAKE2D$VISIBLE$LINES
100
AcDbVertex
100
AcDb2dVertex
 10
276.8700851859118
 20
99.93344114318366
 30
0.0
  0
SEQEND
  5
EA
330
E4
100
AcDbEntity
  8
MAKE2D$VISIBLE$LINES
  0
POLYLINE
  5
EB
330
1F
100
AcDbEntity
  8
MAKE2D$VISIBLE$LINES
100
AcDb2dPolyline
 66
     1
 10
0.0
 20
0.0
 30
0.0
  0
VERTEX
  5
EC
330
EB
100
AcDbEntity
  8
MAKE2D$VISIBLE$LINES
100
AcDbVertex
100
AcDb2dVertex
 10
282.8700851859118
 20
41.43344114318366
 30
0.0
  0
VERTEX
  5
ED
330
EB
100
AcDbEntity
  8
MAKE2D$VISIBLE$LINES
100
AcDbVertex
100
AcDb2dVertex
 10
274.8700851859118
 20
41.43344114318366
 30
0.0
  0
VERTEX
  5
EE
330
EB
100
AcDbEntity
  8
MAKE2D$VISIBLE$LINES
100
AcDbVertex
100
AcDb2dVertex
 10
274.8700851859118
 20
45.43344114318366
 30
0.0
  0
VERTEX
  5
EF
330
EB
100
AcDbEntity
  8
MAKE2D$VISIBLE$LINES
100
AcDbVertex
100
AcDb2dVertex
 10
282.8700851859118
 20
45.43344114318366
 30
0.0
  0
VERTEX
  5
F0
330
EB
100
AcDbEntity
  8
MAKE2D$VISIBLE$LINES
100
AcDbVertex
100
AcDb2dVertex
 10
282.8700851859118
 20
41.43344114318366
 30
0.0
  0
SEQEND
  5
F1
330
EB
100
AcDbEntity
  8
MAKE2D$VISIBLE$LINES
  0
POLYLINE
  5
F2
330
1F
100
AcDbEntity
  8
MAKE2D$VISIBLE$LINES
100
AcDb2dPolyline
 66
     1
 10
0.0
 20
0.0
 30
0.0
  0
VERTEX
  5
F3
330
F2
100
AcDbEntity
  8
MAKE2D$VISIBLE$LINES
100
AcDbVertex
100
AcDb2dVertex
 10
253.8700851859118
 20
41.43344114318366
 30
0.0
  0
VERTEX
  5
F4
330
F2
100
AcDbEntity
  8
MAKE2D$VISIBLE$LINES
100
AcDbVertex
100
AcDb2dVertex
 10
261.8700851859118
 20
41.43344114318366
 30
0.0
  0
VERTEX
  5
F5
330
F2
100
AcDbEntity
  8
MAKE2D$VISIBLE$LINES
100
AcDbVertex
100
AcDb2dVertex
 10
261.8700851859118
 20
45.43344114318366
 30
0.0
  0
VERTEX
  5
F6
330
F2
100
AcDbEntity
  8
MAKE2D$VISIBLE$LINES
100
AcDbVertex
100
AcDb2dVertex
 10
253.8700851859118
 20
45.43344114318366
 30
0.0
  0
VERTEX
  5
F7
330
F2
100
AcDbEntity
  8
MAKE2D$VISIBLE$LINES
100
AcDbVertex
100
AcDb2dVertex
 10
253.8700851859118
 20
41.43344114318366
 30
0.0
  0
SEQEND
  5
F8
330
F2
100
AcDbEntity
  8
MAKE2D$VISIBLE$LINES
  0
POLYLINE
  5
F9
330
1F
100
AcDbEntity
  8
MAKE2D$VISIBLE$LINES
100
AcDb2dPolyline
 66
     1
 10
0.0
 20
0.0
 30
0.0
  0
VERTEX
  5
FA
330
F9
100
AcDbEntity
  8
MAKE2D$VISIBLE$LINES
100
AcDbVertex
100
AcDb2dVertex
 10
282.8700851859118
 20
101.4334411431837
 30
0.0
  0
VERTEX
  5
FB
330
F9
100
AcDbEntity
  8
MAKE2D$VISIBLE$LINES
100
AcDbVertex
100
AcDb2dVertex
 10
282.8700851859118
 20
105.4334411431837
 30
0.0
  0
VERTEX
  5
FC
330
F9
100
AcDbEntity
  8
MAKE2D$VISIBLE$LINES
100
AcDbVertex
100
AcDb2dVertex
 10
274.8700851859118
 20
105.4334411431837
 30
0.0
  0
VERTEX
  5
FD
330
F9
100
AcDbEntity
  8
MAKE2D$VISIBLE$LINES
100
AcDbVertex
100
AcDb2dVertex
 10
274.8700851859118
 20
101.4334411431837
 30
0.0
  0
VERTEX
  5
FE
330
F9
100
AcDbEntity
  8
MAKE2D$VISIBLE$LINES
100
AcDbVertex
100
AcDb2dVertex
 10
282.8700851859118
 20
101.4334411431837
 30
0.0
  0
SEQEND
  5
FF
330
F9
100
AcDbEntity
  8
MAKE2D$VISIBLE$LINES
  0
POLYLINE
  5
100
330
1F
100
AcDbEntity
  8
MAKE2D$VISIBLE$LINES
100
AcDb2dPolyline
 66
     1
 10
0.0
 20
0.0
 30
0.0
  0
VERTEX
  5
101
330
100
100
AcDbEntity
  8
MAKE2D$VISIBLE$LINES
100
AcDbVertex
100
AcDb2dVertex
 10
253.8700851859118
 20
101.4334411431837
 30
0.0
  0
VERTEX
  5
102
330
100
100
AcDbEntity
  8
MAKE2D$VISIBLE$LINES
100
AcDbVertex
100
AcDb2dVertex
 10
253.8700851859118
 20
105.4334411431837
 30
0.0
  0
VERTEX
  5
103
330
100
100
AcDbEntity
  8
MAKE2D$VISIBLE$LINES
100
AcDbVertex
100
AcDb2dVertex
 10
261.8700851859118
 20
105.4334411431837
 30
0.0
  0
VERTEX
  5
104
330
100
100
AcDbEntity
  8
MAKE2D$VISIBLE$LINES
100
AcDbVertex
100
AcDb2dVertex
 10
261.8700851859118
 20
101.4334411431837
 30
0.0
  0
VERTEX
  5
105
330
100
100
AcDbEntity
  8
MAKE2D$VISIBLE$LINES
100
AcDbVertex
100
AcDb2dVertex
 10
253.8700851859118
 20
101.4334411431837
 30
0.0
  0
SEQEND
  5
106
330
100
100
AcDbEntity
  8
MAKE2D$VISIBLE$LINES
  0
LINE
  5
107
330
1F
100
AcDbEntity
  8
MAKE2D$VISIBLE$LINES
100
AcDbLine
 10
286.8700851859118
 20
37.43344114318366
 30
0.0
 11
249.8700851859118
 21
37.43344114318366
 31
0.0
  0
LINE
  5
108
330
1F
100
AcDbEntity
  8
MAKE2D$VISIBLE$LINES
100
AcDbLine
 10
249.8700851859118
 20
37.43344114318366
 30
0.0
 11
249.8700851859118
 21
47.43344114318366
 31
0.0
  0
ARC
  5
109
330
1F
100
AcDbEntity
  8
MAKE2D$VISIBLE$LINES
100
AcDbCircle
 10
248.8701094853701
 20
52.33263566931733
 30
0.0
 40
5.000205836420331
100
AcDbArc
 50
281.5361934022343
 51
359.4502850853129
  0
ARC
  5
10A
330
1F
100
AcDbEntity
  8
MAKE2D$VISIBLE$LINES
100
AcDbCircle
 10
248.8698086516827
 20
52.33196648210085
 30
0.0
 40
5.000500281113357
100
AcDbArc
 50
359.4579853566266
 51
78.46097717603587
  0
LINE
  5
10B
330
1F
100
AcDbEntity
  8
MAKE2D$VISIBLE$LINES
100
AcDbLine
 10
249.8700851859118
 20
57.23140011431647
 30
0.0
 11
249.8700851859118
 21
89.63548217205086
 31
0.0
  0
ARC
  5
10C
330
1F
100
AcDbEntity
  8
MAKE2D$VISIBLE$LINES
100
AcDbCircle
 10
248.8700851859117
 20
94.53446165761723
 30
0.0
 40
5.000000000000046
100
AcDbArc
 50
281.5369590328164
 51
78.46304096718394
  0
LINE
  5
10D
330
1F
100
AcDbEntity
  8
MAKE2D$VISIBLE$LINES
100
AcDbLine
 10
249.8700851859118
 20
99.43344114318366
 30
0.0
 11
249.8700851859118
 21
109.4334411431837
 31
0.0
  0
LINE
  5
10E
330
1F
100
AcDbEntity
  8
MAKE2D$VISIBLE$LINES
100
AcDbLine
 10
249.8700851859118
 20
109.4334411431837
 30
0.0
 11
286.8700851859118
 21
109.4334411431837
 31
0.0
  0
LINE
  5
10F
330
1F
100
AcDbEntity
  8
MAKE2D$VISIBLE$LINES
100
AcDbLine
 10
286.8700851859118
 20
109.4334411431837
 30
0.0
 11
286.8700851859118
 21
99.43344114318366
 31
0.0
  0
ARC
  5
110
330
1F
100
AcDbEntity
  8
MAKE2D$VISIBLE$LINES
100
AcDbCircle
 10
285.8700851859115
 20
94.53446165761727
 30
0.0
 40
5.000000000000097
100
AcDbArc
 50
281.5369590328186
 51
78.46304096718076
  0
LINE
  5
111
330
1F
100
AcDbEntity
  8
MAKE2D$VISIBLE$LINES
100
AcDbLine
 10
286.8700851859118
 20
89.63548217205086
 30
0.0
 11
286.8700851859118
 21
57.23140011431646
 31
0.0
  0
ARC
  5
112
330
1F
100
AcDbEntity
  8
MAKE2D$VISIBLE$LINES
100
AcDbCircle
 10
285.8700851859117
 20
52.33242062875004
 30
0.0
 40
5.000000000000068
100
AcDbArc
 50
281.536959032816
 51
78.46304096718401
  0
LINE
  5
113
330
1F
100
AcDbEntity
  8
MAKE2D$VISIBLE$LINES
100
AcDbLine
 10
286.8700851859118
 20
47.43344114318366
 30
0.0
 11
286.8700851859118
 21
37.43344114318366
 31
0.0
  0
ARC
  5
114
330
1F
100
AcDbEntity
  8
MAKE2D$VISIBLE$LINES
100
AcDbCircle
 10
116.7697656139441
 20
51.78239546311076
 30
0.0
 40
5.000000000000055
100
AcDbArc
 50
101.536959032816
 51
258.463040967184
  0
LINE
  5
115
330
1F
100
AcDbEntity
  8
MAKE2D$VISIBLE$LINES
100
AcDbLine
 10
115.769765613944
 20
46.88341597754436
 30
0.0
 11
115.769765613944
 21
36.88341597754436
 31
0.0
  0
LINE
  5
116
330
1F
100
AcDbEntity
  8
MAKE2D$VISIBLE$LINES
100
AcDbLine
 10
115.769765613944
 20
36.88341597754436
 30
0.0
 11
152.769765613944
 21
36.88341597754436
 31
0.0
  0
LINE
  5
117
330
1F
100
AcDbEntity
  8
MAKE2D$VISIBLE$LINES
100
AcDbLine
 10
152.769765613944
 20
36.88341597754436
 30
0.0
 11
152.769765613944
 21
46.88341597754436
 31
0.0
  0
ARC
  5
118
330
1F
100
AcDbEntity
  8
MAKE2D$VISIBLE$LINES
100
AcDbCircle
 10
153.7697656139441
 20
51.78239546311077
 30
0.0
 40
5.000000000000061
100
AcDbArc
 50
101.5369590328157
 51
258.463040967184
  0
LINE
  5
119
330
1F
100
AcDbEntity
  8
MAKE2D$VISIBLE$LINES
100
AcDbLine
 10
152.769765613944
 20
56.68137494867716
 30
0.0
 11
152.769765613944
 21
89.08545700641156
 31
0.0
  0
ARC
  5
11A
330
1F
100
AcDbEntity
  8
MAKE2D$VISIBLE$LINES
100
AcDbCircle
 10
153.7697656139441
 20
93.98443649197797
 30
0.0
 40
5.00000000000008
100
AcDbArc
 50
101.5369590328166
 51
258.4630409671834
  0
LINE
  5
11B
330
1F
100
AcDbEntity
  8
MAKE2D$VISIBLE$LINES
100
AcDbLine
 10
152.769765613944
 20
98.88341597754436
 30
0.0
 11
152.769765613944
 21
108.8834159775444
 31
0.0
  0
LINE
  5
11C
330
1F
100
AcDbEntity
  8
MAKE2D$VISIBLE$LINES
100
AcDbLine
 10
152.769765613944
 20
108.8834159775444
 30
0.0
 11
115.769765613944
 21
108.8834159775444
 31
0.0
  0
LINE
  5
11D
330
1F
100
AcDbEntity
  8
MAKE2D$VISIBLE$LINES
100
AcDbLine
 10
115.769765613944
 20
108.8834159775444
 30
0.0
 11
115.769765613944
 21
98.88341597754436
 31
0.0
  0
ARC
  5
11E
330
1F
100
AcDbEntity
  8
MAKE2D$VISIBLE$LINES
100
AcDbCircle
 10
116.7697656139441
 20
93.98443649197796
 30
0.0
 40
5.000000000000055
100
AcDbArc
 50
101.536959032816
 51
258.463040967184
  0
LINE
  5
11F
330
1F
100
AcDbEntity
  8
MAKE2D$VISIBLE$LINES
100
AcDbLine
 10
115.769765613944
 20
89.08545700641156
 30
0.0
 11
115.769765613944
 21
56.68137494867716
 31
0.0
  0
POLYLINE
  5
120
330
1F
100
AcDbEntity
  8
MAKE2D$VISIBLE$LINES
100
AcDb2dPolyline
 66
     1
 10
0.0
 20
0.0
 30
0.0
  0
VERTEX
  5
121
330
120
100
AcDbEntity
  8
MAKE2D$VISIBLE$LINES
100
AcDbVertex
100
AcDb2dVertex
 10
128.769765613944
 20
82.38341597754436
 30
0.0
  0
VERTEX
  5
122
330
120
100
AcDbEntity
  8
MAKE2D$VISIBLE$LINES
100
AcDbVertex
100
AcDb2dVertex
 10
128.769765613944
 20
99.38341597754437
 30
0.0
  0
VERTEX
  5
123
330
120
100
AcDbEntity
  8
MAKE2D$VISIBLE$LINES
100
AcDbVertex
100
AcDb2dVertex
 10
143.769765613944
 20
99.38341597754436
 30
0.0
  0
VERTEX
  5
124
330
120
100
AcDbEntity
  8
MAKE2D$VISIBLE$LINES
100
AcDbVertex
100
AcDb2dVertex
 10
143.769765613944
 20
82.38341597754436
 30
0.0
  0
VERTEX
  5
125
330
120
100
AcDbEntity
  8
MAKE2D$VISIBLE$LINES
100
AcDbVertex
100
AcDb2dVertex
 10
128.769765613944
 20
82.38341597754436
 30
0.0
  0
SEQEND
  5
126
330
120
100
AcDbEntity
  8
MAKE2D$VISIBLE$LINES
  0
POLYLINE
  5
127
330
1F
100
AcDbEntity
  8
MAKE2D$VISIBLE$LINES
100
AcDb2dPolyline
 66
     1
 10
0.0
 20
0.0
 30
0.0
  0
VERTEX
  5
128
330
127
100
AcDbEntity
  8
MAKE2D$VISIBLE$LINES
100
AcDbVertex
100
AcDb2dVertex
 10
127.769765613944
 20
62.88341597754436
 30
0.0
  0
VERTEX
  5
129
330
127
100
AcDbEntity
  8
MAKE2D$VISIBLE$LINES
100
AcDbVertex
100
AcDb2dVertex
 10
127.769765613944
 20
77.88341597754436
 30
0.0
  0
VERTEX
  5
12A
330
127
100
AcDbEntity
  8
MAKE2D$VISIBLE$LINES
100
AcDbVertex
100
AcDb2dVertex
 10
144.769765613944
 20
77.88341597754436
 30
0.0
  0
VERTEX
  5
12B
330
127
100
AcDbEntity
  8
MAKE2D$VISIBLE$LINES
100
AcDbVertex
100
AcDb2dVertex
 10
144.769765613944
 20
62.88341597754436
 30
0.0
  0
VERTEX
  5
12C
330
127
100
AcDbEntity
  8
MAKE2D$VISIBLE$LINES
100
AcDbVertex
100
AcDb2dVertex
 10
127.769765613944
 20
62.88341597754436
 30
0.0
  0
SEQEND
  5
12D
330
127
100
AcDbEntity
  8
MAKE2D$VISIBLE$LINES
  0
POLYLINE
  5
12E
330
1F
100
AcDbEntity
  8
MAKE2D$VISIBLE$LINES
100
AcDb2dPolyline
 66
     1
 10
0.0
 20
0.0
 30
0.0
  0
VERTEX
  5
12F
330
12E
100
AcDbEntity
  8
MAKE2D$VISIBLE$LINES
100
AcDbVertex
100
AcDb2dVertex
 10
119.769765613944
 20
44.88341597754436
 30
0.0
  0
VERTEX
  5
130
330
12E
100
AcDbEntity
  8
MAKE2D$VISIBLE$LINES
100
AcDbVertex
100
AcDb2dVertex
 10
119.769765613944
 20
40.88341597754436
 30
0.0
  0
VERTEX
  5
131
330
12E
100
AcDbEntity
  8
MAKE2D$VISIBLE$LINES
100
AcDbVertex
100
AcDb2dVertex
 10
127.769765613944
 20
40.88341597754436
 30
0.0
  0
VERTEX
  5
132
330
12E
100
AcDbEntity
  8
MAKE2D$VISIBLE$LINES
100
AcDbVertex
100
AcDb2dVertex
 10
127.769765613944
 20
44.88341597754436
 30
0.0
  0
VERTEX
  5
133
330
12E
100
AcDbEntity
  8
MAKE2D$VISIBLE$LINES
100
AcDbVertex
100
AcDb2dVertex
 10
119.769765613944
 20
44.88341597754436
 30
0.0
  0
SEQEND
  5
134
330
12E
100
AcDbEntity
  8
MAKE2D$VISIBLE$LINES
  0
POLYLINE
  5
135
330
1F
100
AcDbEntity
  8
MAKE2D$VISIBLE$LINES
100
AcDb2dPolyline
 66
     1
 10
0.0
 20
0.0
 30
0.0
  0
VERTEX
  5
136
330
135
100
AcDbEntity
  8
MAKE2D$VISIBLE$LINES
100
AcDbVertex
100
AcDb2dVertex
 10
140.769765613944
 20
40.88341597754436
 30
0.0
  0
VERTEX
  5
137
330
135
100
AcDbEntity
  8
MAKE2D$VISIBLE$LINES
100
AcDbVertex
100
AcDb2dVertex
 10
148.769765613944
 20
40.88341597754436
 30
0.0
  0
VERTEX
  5
138
330
135
100
AcDbEntity
  8
MAKE2D$VISIBLE$LINES
100
AcDbVertex
100
AcDb2dVertex
 10
148.769765613944
 20
44.88341597754436
 30
0.0
  0
VERTEX
  5
139
330
135
100
AcDbEntity
  8
MAKE2D$VISIBLE$LINES
100
AcDbVertex
100
AcDb2dVertex
 10
140.769765613944
 20
44.88341597754436
 30
0.0
  0
VERTEX
  5
13A
330
135
100
AcDbEntity
  8
MAKE2D$VISIBLE$LINES
100
AcDbVertex
100
AcDb2dVertex
 10
140.769765613944
 20
40.88341597754436
 30
0.0
  0
SEQEND
  5
13B
330
135
100
AcDbEntity
  8
MAKE2D$VISIBLE$LINES
  0
POLYLINE
  5
13C
330
1F
100
AcDbEntity
  8
MAKE2D$VISIBLE$LINES
100
AcDb2dPolyline
 66
     1
 10
0.0
 20
0.0
 30
0.0
  0
VERTEX
  5
13D
330
13C
100
AcDbEntity
  8
MAKE2D$VISIBLE$LINES
100
AcDbVertex
100
AcDb2dVertex
 10
119.769765613944
 20
104.8834159775444
 30
0.0
  0
VERTEX
  5
13E
330
13C
100
AcDbEntity
  8
MAKE2D$VISIBLE$LINES
100
AcDbVertex
100
AcDb2dVertex
 10
119.769765613944
 20
100.8834159775444
 30
0.0
  0
VERTEX
  5
13F
330
13C
100
AcDbEntity
  8
MAKE2D$VISIBLE$LINES
100
AcDbVertex
100
AcDb2dVertex
 10
127.769765613944
 20
100.8834159775444
 30
0.0
  0
VERTEX
  5
140
330
13C
100
AcDbEntity
  8
MAKE2D$VISIBLE$LINES
100
AcDbVertex
100
AcDb2dVertex
 10
127.769765613944
 20
104.8834159775444
 30
0.0
  0
VERTEX
  5
141
330
13C
100
AcDbEntity
  8
MAKE2D$VISIBLE$LINES
100
AcDbVertex
100
AcDb2dVertex
 10
119.769765613944
 20
104.8834159775444
 30
0.0
  0
SEQEND
  5
142
330
13C
100
AcDbEntity
  8
MAKE2D$VISIBLE$LINES
  0
POLYLINE
  5
143
330
1F
100
AcDbEntity
  8
MAKE2D$VISIBLE$LINES
100
AcDb2dPolyline
 66
     1
 10
0.0
 20
0.0
 30
0.0
  0
VERTEX
  5
144
330
143
100
AcDbEntity
  8
MAKE2D$VISIBLE$LINES
100
AcDbVertex
100
AcDb2dVertex
 10
148.769765613944
 20
104.8834159775444
 30
0.0
  0
VERTEX
  5
145
330
143
100
AcDbEntity
  8
MAKE2D$VISIBLE$LINES
100
AcDbVertex
100
AcDb2dVertex
 10
140.769765613944
 20
104.8834159775444
 30
0.0
  0
VERTEX
  5
146
330
143
100
AcDbEntity
  8
MAKE2D$VISIBLE$LINES
100
AcDbVertex
100
AcDb2dVertex
 10
140.769765613944
 20
100.8834159775444
 30
0.0
  0
VERTEX
  5
147
330
143
100
AcDbEntity
  8
MAKE2D$VISIBLE$LINES
100
AcDbVertex
100
AcDb2dVertex
 10
148.769765613944
 20
100.8834159775444
 30
0.0
  0
VERTEX
  5
148
330
143
100
AcDbEntity
  8
MAKE2D$VISIBLE$LINES
100
AcDbVertex
100
AcDb2dVertex
 10
148.769765613944
 20
104.8834159775444
 30
0.0
  0
SEQEND
  5
149
330
143
100
AcDbEntity
  8
MAKE2D$VISIBLE$LINES
  0
POLYLINE
  5
14A
330
1F
100
AcDbEntity
  8
MAKE2D$VISIBLE$LINES
100
AcDb2dPolyline
 66
     1
 10
0.0
 20
0.0
 30
0.0
  0
VERTEX
  5
14B
330
14A
100
AcDbEntity
  8
MAKE2D$VISIBLE$LINES
100
AcDbVertex
100
AcDb2dVertex
 10
162.3786292125254
 20
36.08045100768113
 30
0.0
  0
VERTEX
  5
14C
330
14A
100
AcDbEntity
  8
MAKE2D$VISIBLE$LINES
100
AcDbVertex
100
AcDb2dVertex
 10
182.3786292125254
 20
36.08045100768113
 30
0.0
  0
VERTEX
  5
14D
330
14A
100
AcDbEntity
  8
MAKE2D$VISIBLE$LINES
100
AcDbVertex
100
AcDb2dVertex
 10
182.3786292125254
 20
40.08045100768113
 30
0.0
  0
VERTEX
  5
14E
330
14A
100
AcDbEntity
  8
MAKE2D$VISIBLE$LINES
100
AcDbVertex
100
AcDb2dVertex
 10
194.3786292125254
 20
40.08045100768113
 30
0.0
  0
VERTEX
  5
14F
330
14A
100
AcDbEntity
  8
MAKE2D$VISIBLE$LINES
100
AcDbVertex
100
AcDb2dVertex
 10
194.3786292125254
 20
36.08045100768113
 30
0.0
  0
VERTEX
  5
150
330
14A
100
AcDbEntity
  8
MAKE2D$VISIBLE$LINES
100
AcDbVertex
100
AcDb2dVertex
 10
215.3786292125254
 20
36.08045100768113
 30
0.0
  0
VERTEX
  5
151
330
14A
100
AcDbEntity
  8
MAKE2D$VISIBLE$LINES
100
AcDbVertex
100
AcDb2dVertex
 10
215.3786292125254
 20
40.08045100768113
 30
0.0
  0
VERTEX
  5
152
330
14A
100
AcDbEntity
  8
MAKE2D$VISIBLE$LINES
100
AcDbVertex
100
AcDb2dVertex
 10
227.3786292125254
 20
40.08045100768113
 30
0.0
  0
VERTEX
  5
153
330
14A
100
AcDbEntity
  8
MAKE2D$VISIBLE$LINES
100
AcDbVertex
100
AcDb2dVertex
 10
227.3786292125254
 20
36.08045100768113
 30
0.0
  0
VERTEX
  5
154
330
14A
100
AcDbEntity
  8
MAKE2D$VISIBLE$LINES
100
AcDbVertex
100
AcDb2dVertex
 10
247.3786292125254
 20
36.08045100768113
 30
0.0
  0
VERTEX
  5
155
330
14A
100
AcDbEntity
  8
MAKE2D$VISIBLE$LINES
100
AcDbVertex
100
AcDb2dVertex
 10
247.3786292125254
 20
-19.91954899231887
 30
0.0
  0
VERTEX
  5
156
330
14A
100
AcDbEntity
  8
MAKE2D$VISIBLE$LINES
100
AcDbVertex
100
AcDb2dVertex
 10
227.3786292125254
 20
-19.91954899231887
 30
0.0
  0
VERTEX
  5
157
330
14A
100
AcDbEntity
  8
MAKE2D$VISIBLE$LINES
100
AcDbVertex
100
AcDb2dVertex
 10
227.3786292125254
 20
-23.91954899231887
 30
0.0
  0
VERTEX
  5
158
330
14A
100
AcDbEntity
  8
MAKE2D$VISIBLE$LINES
100
AcDbVertex
100
AcDb2dVertex
 10
215.3786292125254
 20
-23.91954899231887
 30
0.0
  0
VERTEX
  5
159
330
14A
100
AcDbEntity
  8
MAKE2D$VISIBLE$LINES
100
AcDbVertex
100
AcDb2dVertex
 10
215.3786292125254
 20
-19.91954899231887
 30
0.0
  0
VERTEX
  5
15A
330
14A
100
AcDbEntity
  8
MAKE2D$VISIBLE$LINES
100
AcDbVertex
100
AcDb2dVertex
 10
194.3786292125254
 20
-19.91954899231887
 30
0.0
  0
VERTEX
  5
15B
330
14A
100
AcDbEntity
  8
MAKE2D$VISIBLE$LINES
100
AcDbVertex
100
AcDb2dVertex
 10
194.3786292125254
 20
-23.91954899231887
 30
0.0
  0
VERTEX
  5
15C
330
14A
100
AcDbEntity
  8
MAKE2D$VISIBLE$LINES
100
AcDbVertex
100
AcDb2dVertex
 10
182.3786292125254
 20
-23.91954899231887
 30
0.0
  0
VERTEX
  5
15D
330
14A
100
AcDbEntity
  8
MAKE2D$VISIBLE$LINES
100
AcDbVertex
100
AcDb2dVertex
 10
182.3786292125254
 20
-19.91954899231887
 30
0.0
  0
VERTEX
  5
15E
330
14A
100
AcDbEntity
  8
MAKE2D$VISIBLE$LINES
100
AcDbVertex
100
AcDb2dVertex
 10
162.3786292125254
 20
-19.91954899231887
 30
0.0
  0
VERTEX
  5
15F
330
14A
100
AcDbEntity
  8
MAKE2D$VISIBLE$LINES
100
AcDbVertex
100
AcDb2dVertex
 10
162.3786292125254
 20
36.08045100768113
 30
0.0
  0
SEQEND
  5
160
330
14A
100
AcDbEntity
  8
MAKE2D$VISIBLE$LINES
  0
POLYLINE
  5
161
330
1F
100
AcDbEntity
  8
MAKE2D$VISIBLE$LINES
100
AcDb2dPolyline
 66
     1
 10
0.0
 20
0.0
 30
0.0
  0
VERTEX
  5
162
330
161
100
AcDbEntity
  8
MAKE2D$VISIBLE$LINES
100
AcDbVertex
100
AcDb2dVertex
 10
162.957227114042
 20
102.0406117805776
 30
0.0
  0
VERTEX
  5
163
330
161
100
AcDbEntity
  8
MAKE2D$VISIBLE$LINES
100
AcDbVertex
100
AcDb2dVertex
 10
182.957227114042
 20
102.0406117805776
 30
0.0
  0
VERTEX
  5
164
330
161
100
AcDbEntity
  8
MAKE2D$VISIBLE$LINES
100
AcDbVertex
100
AcDb2dVertex
 10
182.957227114042
 20
106.0406117805776
 30
0.0
  0
VERTEX
  5
165
330
161
100
AcDbEntity
  8
MAKE2D$VISIBLE$LINES
100
AcDbVertex
100
AcDb2dVertex
 10
194.957227114042
 20
106.0406117805776
 30
0.0
  0
VERTEX
  5
166
330
161
100
AcDbEntity
  8
MAKE2D$VISIBLE$LINES
100
AcDbVertex
100
AcDb2dVertex
 10
194.957227114042
 20
102.0406117805776
 30
0.0
  0
VERTEX
  5
167
330
161
100
AcDbEntity
  8
MAKE2D$VISIBLE$LINES
100
AcDbVertex
100
AcDb2dVertex
 10
215.957227114042
 20
102.0406117805776
 30
0.0
  0
VERTEX
  5
168
330
161
100
AcDbEntity
  8
MAKE2D$VISIBLE$LINES
100
AcDbVertex
100
AcDb2dVertex
 10
215.957227114042
 20
106.0406117805776
 30
0.0
  0
VERTEX
  5
169
330
161
100
AcDbEntity
  8
MAKE2D$VISIBLE$LINES
100
AcDbVertex
100
AcDb2dVertex
 10
227.957227114042
 20
106.0406117805776
 30
0.0
  0
VERTEX
  5
16A
330
161
100
AcDbEntity
  8
MAKE2D$VISIBLE$LINES
100
AcDbVertex
100
AcDb2dVertex
 10
227.957227114042
 20
102.0406117805776
 30
0.0
  0
VERTEX
  5
16B
330
161
100
AcDbEntity
  8
MAKE2D$VISIBLE$LINES
100
AcDbVertex
100
AcDb2dVertex
 10
247.957227114042
 20
102.0406117805776
 30
0.0
  0
VERTEX
  5
16C
330
161
100
AcDbEntity
  8
MAKE2D$VISIBLE$LINES
100
AcDbVertex
100
AcDb2dVertex
 10
247.957227114042
 20
46.04061178057765
 30
0.0
  0
VERTEX
  5
16D
330
161
100
AcDbEntity
  8
MAKE2D$VISIBLE$LINES
100
AcDbVertex
100
AcDb2dVertex
 10
227.957227114042
 20
46.04061178057765
 30
0.0
  0
VERTEX
  5
16E
330
161
100
AcDbEntity
  8
MAKE2D$VISIBLE$LINES
100
AcDbVertex
100
AcDb2dVertex
 10
227.957227114042
 20
42.04061178057765
 30
0.0
  0
VERTEX
  5
16F
330
161
100
AcDbEntity
  8
MAKE2D$VISIBLE$LINES
100
AcDbVertex
100
AcDb2dVertex
 10
215.957227114042
 20
42.04061178057765
 30
0.0
  0
VERTEX
  5
170
330
161
100
AcDbEntity
  8
MAKE2D$VISIBLE$LINES
100
AcDbVertex
100
AcDb2dVertex
 10
215.957227114042
 20
46.04061178057765
 30
0.0
  0
VERTEX
  5
171
330
161
100
AcDbEntity
  8
MAKE2D$VISIBLE$LINES
100
AcDbVertex
100
AcDb2dVertex
 10
194.957227114042
 20
46.04061178057765
 30
0.0
  0
VERTEX
  5
172
330
161
100
AcDbEntity
  8
MAKE2D$VISIBLE$LINES
100
AcDbVertex
100
AcDb2dVertex
 10
194.957227114042
 20
42.04061178057765
 30
0.0
  0
VERTEX
  5
173
330
161
100
AcDbEntity
  8
MAKE2D$VISIBLE$LINES
100
AcDbVertex
100
AcDb2dVertex
 10
182.957227114042
 20
42.04061178057765
 30
0.0
  0
VERTEX
  5
174
330
161
100
AcDbEntity
  8
MAKE2D$VISIBLE$LINES
100
AcDbVertex
100
AcDb2dVertex
 10
182.957227114042
 20
46.04061178057765
 30
0.0
  0
VERTEX
  5
175
330
161
100
AcDbEntity
  8
MAKE2D$VISIBLE$LINES
100
AcDbVertex
100
AcDb2dVertex
 10
162.957227114042
 20
46.04061178057765
 30
0.0
  0
VERTEX
  5
176
330
161
100
AcDbEntity
  8
MAKE2D$VISIBLE$LINES
100
AcDbVertex
100
AcDb2dVertex
 10
162.957227114042
 20
102.0406117805776
 30
0.0
  0
SEQEND
  5
177
330
161
100
AcDbEntity
  8
MAKE2D$VISIBLE$LINES
  0
ENDSEC
  0
SECTION
  2
OBJECTS
  0
DICTIONARY
  5
C
330
0
100
AcDbDictionary
  3
ACAD_GROUP
350
D
  3
ACAD_LAYOUT
350
1A
  3
ACAD_MATERIAL
350
43
  3
ACAD_MLEADERSTYLE
350
19A
  3
ACAD_MLINESTYLE
350
17
  3
ACAD_PLOTSETTINGS
350
19
  3
ACAD_SCALELIST
350
47
  3
ACAD_VISUALSTYLE
350
2A
  3
ACDBHEADERROUNDTRIPXREC
350
178
  3
ACDBVARIABLEDICTIONARY
350
198
  0
DICTIONARY
  5
19F
330
8
100
AcDbDictionary
280
     1
  3
ACAD_XREC_ROUNDTRIP
360
1A0
  0
DICTIONARY
  5
D
102
{ACAD_REACTORS
330
C
102
}
330
C
100
AcDbDictionary
  0
DICTIONARY
  5
1A
102
{ACAD_REACTORS
330
C
102
}
330
C
100
AcDbDictionary
  0
DICTIONARY
  5
43
102
{ACAD_REACTORS
330
C
102
}
330
C
100
AcDbDictionary
  3
BYBLOCK
350
45
  3
BYLAYER
350
44
  3
GLOBAL
350
46
  0
DICTIONARY
  5
19A
102
{ACAD_REACTORS
330
C
102
}
330
C
100
AcDbDictionary
  0
DICTIONARY
  5
17
102
{ACAD_REACTORS
330
C
102
}
330
C
100
AcDbDictionary
  3
STANDARD
350
18
  0
DICTIONARY
  5
19
102
{ACAD_REACTORS
330
C
102
}
330
C
100
AcDbDictionary
  0
DICTIONARY
  5
47
102
{ACAD_REACTORS
330
C
102
}
330
C
100
AcDbDictionary
  3
A0
350
48
  3
A1
350
49
  3
A2
350
4A
  3
A3
350
4B
  3
A4
350
4C
  3
A5
350
4D
  3
A6
350
4E
  3
A7
350
4F
  3
A8
350
50
  3
A9
350
51
  3
B0
350
52
  3
B1
350
53
  3
B2
350
54
  3
B3
350
55
  3
B4
350
56
  3
B5
350
57
  3
B6
350
58
  3
B7
350
59
  3
B8
350
5A
  3
B9
350
5B
  3
C0
350
5C
  3
C1
350
5D
  3
C2
350
5E
  3
C3
350
5F
  3
C4
350
60
  3
C5
350
61
  3
C6
350
62
  3
C7
350
63
  3
C8
350
64
  3
C9
350
65
  3
D0
350
66
  3
D1
350
67
  3
D2
350
68
  0
DICTIONARY
  5
2A
102
{ACAD_REACTORS
330
C
102
}
330
C
100
AcDbDictionary
  3
2DWIREFRAME
350
2F
  3
BASIC
350
32
  3
BRIGHTEN
350
36
  3
COLORCHANGE
350
3A
  3
CONCEPTUAL
350
34
  3
DIM
350
35
  3
EDGECOLOROFF
350
3D
  3
FACEPATTERN
350
39
  3
FLAT
350
2B
  3
FLATWITHEDGES
350
2C
  3
GOURAUD
350
2D
  3
GOURAUDWITHEDGES
350
2E
  3
HIDDEN
350
31
  3
JITTEROFF
350
3B
  3
LINEPATTERN
350
38
  3
OVERHANGOFF
350
3C
  3
REALISTIC
350
33
  3
SHADED
350
42
  3
SHADED_WITH_EDGES
350
41
  3
SHADES_OF_GRAY
350
3E
  3
SKETCHY
350
3F
  3
THICKEN
350
37
  3
WIREFRAME
350
30
  3
X-RAY
350
40
  0
DICTIONARY
  5
178
102
{ACAD_REACTORS
330
C
102
}
330
C
100
AcDbDictionary
  3
CEPSNTYPE
350
181
  3
DIMSTYLEDATA
350
197
  3
FINGERPRINTGUID
350
182
  3
HYPERLINKBASE
350
17B
  3
INSUNITS
350
180
  3
LAYOUTDICT
350
17D
  3
LWETCUNION
350
17F
  3
PLOTSETDICT
350
17E
  3
PSVPSCALE
350
184
  3
PUCSBASE
350
187
  3
PUCSORGBACK
350
18D
  3
PUCSORGBOTTOM
350
189
  3
PUCSORGFRONT
350
18C
  3
PUCSORGLEFT
350
18A
  3
PUCSORGRIGHT
350
18B
  3
PUCSORGTOP
350
188
  3
PUCSORTHOREF
350
185
  3
PUCSORTHOVIEW
350
186
  3
STYLESHEET
350
17C
  3
TSTACKALIGN
350
179
  3
TSTACKSIZE
350
17A
  3
UCSBASE
350
190
  3
UCSORGBACK
350
196
  3
UCSORGBOTTOM
350
192
  3
UCSORGFRONT
350
195
  3
UCSORGLEFT
350
193
  3
UCSORGRIGHT
350
194
  3
UCSORGTOP
350
191
  3
UCSORTHOREF
350
18E
  3
UCSORTHOVIEW
350
18F
  3
VERSIONGUID
350
183
  0
DICTIONARY
  5
198
102
{ACAD_REACTORS
330
C
102
}
330
C
100
AcDbDictionary
  3
CANNOSCALE
350
1A1
  3
DIMASSOC
350
19D
  3
HIDETEXT
350
19E
  3
MSLTSCALE
350
1A2
  0
XRECORD
  5
1A0
102
{ACAD_REACTORS
330
19F
102
}
330
19F
100
AcDbXrecord
102
VTR_0.000_0.000_1.000_1.000_GRIDDISPLAY
 70
     3
102
VTR_0.000_0.000_1.000_1.000_GRIDMAJOR
 70
     5
102
VTR_0.000_0.000_1.000_1.000_DEFAULTLIGHTING
280
     1
102
VTR_0.000_0.000_1.000_1.000_DEFAULTLIGHTINGTYPE
 70
     1
102
VTR_0.000_0.000_1.000_1.000_BRIGHTNESS
141
0.0
102
VTR_0.000_0.000_1.000_1.000_CONTRAST
142
0.0
  0
MATERIAL
  5
45
102
{ACAD_REACTORS
330
43
102
}
102
{ACAD_XDICTIONARY
360
1A5
102
}
330
43
100
AcDbMaterial
  1
BYBLOCK
  0
MATERIAL
  5
44
102
{ACAD_REACTORS
330
43
102
}
102
{ACAD_XDICTIONARY
360
1A3
102
}
330
43
100
AcDbMaterial
  1
BYLAYER
  0
MATERIAL
  5
46
102
{ACAD_REACTORS
330
43
102
}
102
{ACAD_XDICTIONARY
360
1A7
102
}
330
43
100
AcDbMaterial
  1
GLOBAL
  0
MLINESTYLE
  5
18
102
{ACAD_REACTORS
330
17
102
}
330
17
100
AcDbMlineStyle
  2
Standard
 70
     0
  3

 62
   256
 51
90.0
 52
90.0
 71
     2
 49
0.5
 62
   256
  6
BYLAYER
 49
-0.5
 62
   256
  6
BYLAYER
  0
ACAD_PROXY_OBJECT
  5
48
102
{ACAD_REACTORS
330
47
102
}
330
47
100
AcDbProxyObject
 90
      499
 91
      503
 93
       41
310
903313A31580
  0
ACAD_PROXY_OBJECT
  5
49
102
{ACAD_REACTORS
330
47
102
}
330
47
100
AcDbProxyObject
 90
      499
 91
      503
 93
      105
310
903313A324000000000000004000
  0
ACAD_PROXY_OBJECT
  5
4A
102
{ACAD_REACTORS
330
47
102
}
330
47
100
AcDbProxyObject
 90
      499
 91
      503
 93
      105
310
903313A344000000000000104000
  0
ACAD_PROXY_OBJECT
  5
4B
102
{ACAD_REACTORS
330
47
102
}
330
47
100
AcDbProxyObject
 90
      499
 91
      503
 93
      105
310
903313A354000000000000144000
  0
ACAD_PROXY_OBJECT
  5
4C
102
{ACAD_REACTORS
330
47
102
}
330
47
100
AcDbProxyObject
 90
      499
 91
      503
 93
      105
310
903313A384000000000000204000
  0
ACAD_PROXY_OBJECT
  5
4D
102
{ACAD_REACTORS
330
47
102
}
330
47
100
AcDbProxyObject
 90
      499
 91
      503
 93
      113
310
904313A31304000000000000244000
  0
ACAD_PROXY_OBJECT
  5
4E
102
{ACAD_REACTORS
330
47
102
}
330
47
100
AcDbProxyObject
 90
      499
 91
      503
 93
      113
310
904313A31364000000000000304000
  0
ACAD_PROXY_OBJECT
  5
4F
102
{ACAD_REACTORS
330
47
102
}
330
47
100
AcDbProxyObject
 90
      499
 91
      503
 93
      113
310
904313A32304000000000000344000
  0
ACAD_PROXY_OBJECT
  5
50
102
{ACAD_REACTORS
330
47
102
}
330
47
100
AcDbProxyObject
 90
      499
 91
      503
 93
      113
310
904313A333040000000000003E4000
  0
ACAD_PROXY_OBJECT
  5
51
102
{ACAD_REACTORS
330
47
102
}
330
47
100
AcDbProxyObject
 90
      499
 91
      503
 93
      113
310
904313A34304000000000000444000
  0
ACAD_PROXY_OBJECT
  5
52
102
{ACAD_REACTORS
330
47
102
}
330
47
100
AcDbProxyObject
 90
      499
 91
      503
 93
      113
310
904313A35304000000000000494000
  0
ACAD_PROXY_OBJECT
  5
53
102
{ACAD_REACTORS
330
47
102
}
330
47
100
AcDbProxyObject
 90
      499
 91
      503
 93
      121
310
905313A3130304000000000000594000
  0
ACAD_PROXY_OBJECT
  5
54
102
{ACAD_REACTORS
330
47
102
}
330
47
100
AcDbProxyObject
 90
      499
 91
      503
 93
      105
310
903323A310000000000000010100
  0
ACAD_PROXY_OBJECT
  5
55
102
{ACAD_REACTORS
330
47
102
}
330
47
100
AcDbProxyObject
 90
      499
 91
      503
 93
      105
310
903343A310000000000000410100
  0
ACAD_PROXY_OBJECT
  5
56
102
{ACAD_REACTORS
330
47
102
}
330
47
100
AcDbProxyObject
 90
      499
 91
      503
 93
      105
310
903383A310000000000000810100
  0
ACAD_PROXY_OBJECT
  5
57
102
{ACAD_REACTORS
330
47
102
}
330
47
100
AcDbProxyObject
 90
      499
 91
      503
 93
      113
310
90431303A310000000000000910100
  0
ACAD_PROXY_OBJECT
  5
58
102
{ACAD_REACTORS
330
47
102
}
330
47
100
AcDbProxyObject
 90
      499
 91
      503
 93
      121
310
9053130303A310000000000001650100
  0
ACAD_PROXY_OBJECT
  5
59
102
{ACAD_REACTORS
330
47
102
}
330
47
100
AcDbProxyObject
 90
      499
 91
      503
 93
      257
310
90E312F31323822203D2031272D3022000000000000200FC000000000000284000
  0
ACAD_PROXY_OBJECT
  5
5A
102
{ACAD_REACTORS
330
47
102
}
330
47
100
AcDbProxyObject
 90
      499
 91
      503
 93
      249
310
90D312F363422203D2031272D3022000000000000240FC000000000000284000
  0
ACAD_PROXY_OBJECT
  5
5B
102
{ACAD_REACTORS
330
47
102
}
330
47
100
AcDbProxyObject
 90
      499
 91
      503
 93
      249
310
90D312F333222203D2031272D3022000000000000280FC000000000000284000
  0
ACAD_PROXY_OBJECT
  5
5C
102
{ACAD_REACTORS
330
47
102
}
330
47
100
AcDbProxyObject
 90
      499
 91
      503
 93
      249
310
90D312F313622203D2031272D30220000000000002C0FC000000000000284000
  0
ACAD_PROXY_OBJECT
  5
5D
102
{ACAD_REACTORS
330
47
102
}
330
47
100
AcDbProxyObject
 90
      499
 91
      503
 93
      249
310
90D332F333222203D2031272D30220000000000002E0FC000000000000284000
  0
ACAD_PROXY_OBJECT
  5
5E
102
{ACAD_REACTORS
330
47
102
}
330
47
100
AcDbProxyObject
 90
      499
 91
      503
 93
      241
310
90C312F3822203D2031272D3022000000000000300FC000000000000284000
  0
ACAD_PROXY_OBJECT
  5
5F
102
{ACAD_REACTORS
330
47
102
}
330
47
100
AcDbProxyObject
 90
      499
 91
      503
 93
      249
310
90D332F313622203D2031272D3022000000000000320FC000000000000284000
  0
ACAD_PROXY_OBJECT
  5
60
102
{ACAD_REACTORS
330
47
102
}
330
47
100
AcDbProxyObject
 90
      499
 91
      503
 93
      241
310
90C312F3422203D2031272D3022000000000000340FC000000000000284000
  0
ACAD_PROXY_OBJECT
  5
61
102
{ACAD_REACTORS
330
47
102
}
330
47
100
AcDbProxyObject
 90
      499
 91
      503
 93
      241
310
90C332F3822203D2031272D3022000000000000360FC000000000000284000
  0
ACAD_PROXY_OBJECT
  5
62
102
{ACAD_REACTORS
330
47
102
}
330
47
100
AcDbProxyObject
 90
      499
 91
      503
 93
      241
310
90C312F3222203D2031272D3022000000000000380FC000000000000284000
  0
ACAD_PROXY_OBJECT
  5
63
102
{ACAD_REACTORS
330
47
102
}
330
47
100
AcDbProxyObject
 90
      499
 91
      503
 93
      241
310
90C332F3422203D2031272D30220000000000003A0FC000000000000284000
  0
ACAD_PROXY_OBJECT
  5
64
102
{ACAD_REACTORS
330
47
102
}
330
47
100
AcDbProxyObject
 90
      499
 91
      503
 93
      161
310
90A3122203D2031272D30224000000000000284000
  0
ACAD_PROXY_OBJECT
  5
65
102
{ACAD_REACTORS
330
47
102
}
330
47
100
AcDbProxyObject
 90
      499
 91
      503
 93
      257
310
90E312D312F3222203D2031272D30220000000000003E0FC000000000000284000
  0
ACAD_PROXY_OBJECT
  5
66
102
{ACAD_REACTORS
330
47
102
}
330
47
100
AcDbProxyObject
 90
      499
 91
      503
 93
      225
310
90A3322203D2031272D302200000000000002100000000000000284000
  0
ACAD_PROXY_OBJECT
  5
67
102
{ACAD_REACTORS
330
47
102
}
330
47
100
AcDbProxyObject
 90
      499
 91
      503
 93
      225
310
90A3622203D2031272D302200000000000006100000000000000284000
  0
ACAD_PROXY_OBJECT
  5
68
102
{ACAD_REACTORS
330
47
102
}
330
47
100
AcDbProxyObject
 90
      499
 91
      503
 93
      249
310
90D31272D3022203D2031272D30220000000000000A100000000000000284000
  0
ACAD_PROXY_OBJECT
  5
2F
102
{ACAD_REACTORS
330
2A
102
}
330
2A
100
AcDbProxyObject
 90
      499
 91
      501
 93
      436
310
42CC9915DA5C99599C985B595049028333333333333E33F0000000000000F90107901411070040501600405405064090741402480A0340
1001
ACAD
1000
AcDbSavedByObjectVersion
1070
     0
  0
ACAD_PROXY_OBJECT
  5
32
102
{ACAD_REACTORS
330
2A
102
}
330
2A
100
AcDbProxyObject
 90
      499
 91
      501
 93
      388
310
4150985CDA58D07406404333333333333E33F0000000000000F90107A41107004050150841D405064090741402480A0350
1001
ACAD
1000
AcDbSavedByObjectVersion
1070
     0
  0
ACAD_PROXY_OBJECT
  5
36
102
{ACAD_REACTORS
330
2A
102
}
330
2A
100
AcDbProxyObject
 90
      499
 91
      501
 93
      428
310
42109C9A59DA1D195B90C409028333333333333E33F0000000000000F9010790141107004050150841D405064090741402480A029950
1001
ACAD
1000
AcDbSavedByObjectVersion
1070
     0
  0
ACAD_PROXY_OBJECT
  5
3A
102
{ACAD_REACTORS
330
2A
102
}
330
2A
100
AcDbProxyObject
 90
      499
 91
      501
 93
      452
310
42D0DBDB1BDC90DA185B99D95104090240C333333333333E33F0000000000000F90108901411070040501508421405064090741402480A0350
1001
ACAD
1000
AcDbSavedByObjectVersion
1070
     0
  0
ACAD_PROXY_OBJECT
  5
34
102
{ACAD_REACTORS
330
2A
102
}
330
2A
100
AcDbProxyObject
 90
      499
 91
      501
 93
      500
310
4290DBDB98D95C1D1D585B10940D028333333333333E33F0000000000000F90107902409070040501000000000018199010841D405064090740C02480A0340
1001
ACAD
1000
AcDbSavedByObjectVersion
1070
     0
  0
ACAD_PROXY_OBJECT
  5
35
102
{ACAD_REACTORS
330
2A
102
}
330
2A
100
AcDbProxyObject
 90
      499
 91
      501
 93
      412
310
40D11A5B50B409028333333333333E33F0000000000000F9010790141107004050150841D405064090741402480A02677FFFFFD0
1001
ACAD
1000
AcDbSavedByObjectVersion
1070
     0
  0
ACAD_PROXY_OBJECT
  5
3D
102
{ACAD_REACTORS
330
2A
102
}
330
2A
100
AcDbProxyObject
 90
      499
 91
      501
 93
      452
310
43115919D950DBDB1BDC93D999916409028333333333333E33F0000000000000F9010790141107004050150841D405064090741402480A0350
1001
ACAD
1000
AcDbSavedByObjectVersion
1070
     0
  0
ACAD_PROXY_OBJECT
  5
39
102
{ACAD_REACTORS
330
2A
102
}
330
2A
100
AcDbProxyObject
 90
      499
 91
      501
 93
      444
310
42D19858D95C185D1D195C9B90F409028333333333333E33F0000000000000F9010790141107004050150841D405064090741402480A0350
1001
ACAD
1000
AcDbSavedByObjectVersion
1070
     0
  0
ACAD_PROXY_OBJECT
  5
2B
102
{ACAD_REACTORS
330
2A
102
}
330
2A
100
AcDbProxyObject
 90
      499
 91
      501
 93
      380
310
41119B185D240901404333333333333E33F0000000000000F9010740A907004050150841D405064090741402480A1B50
1001
ACAD
1000
AcDbSavedByObjectVersion
1070
     0
  0
ACAD_PROXY_OBJECT
  5
2C
102
{ACAD_REACTORS
330
2A
102
}
330
2A
100
AcDbProxyObject
 90
      499
 91
      501
 93
      468
310
43519B185D15DA5D1A115919D95CD0140901404333333333333E33F0000000000000F90107409019070040501600405405064090741402480A1B50
1001
ACAD
1000
AcDbSavedByObjectVersion
1070
     0
  0
ACAD_PROXY_OBJECT
  5
2D
102
{ACAD_REACTORS
330
2A
102
}
330
2A
100
AcDbProxyObject
 90
      499
 91
      501
 93
      404
310
41D1DBDD5C985D5910240902404333333333333E33F0000000000000F9010740A9070040501641D405064090741402480A1B50
1001
ACAD
1000
AcDbSavedByObjectVersion
1070
     0
  0
ACAD_PROXY_OBJECT
  5
2E
102
{ACAD_REACTORS
330
2A
102
}
330
2A
100
AcDbProxyObject
 90
      499
 91
      501
 93
      492
310
4411DBDD5C985D5915DA5D1A115919D95CD0340902404333333333333E33F0000000000000F90107409019070040501600405405064090741402480A1B50
1001
ACAD
1000
AcDbSavedByObjectVersion
1070
     0
  0
ACAD_PROXY_OBJECT
  5
31
102
{ACAD_REACTORS
330
2A
102
}
330
2A
100
AcDbProxyObject
 90
      499
 91
      501
 93
      476
310
41921A5919195B90640502408333333333333E33F0000000000000F901079024090700405020000000000001110200405405064090740C02480A0340
1001
ACAD
1000
AcDbSavedByObjectVersion
1070
     0
  0
ACAD_PROXY_OBJECT
  5
3B
102
{ACAD_REACTORS
330
2A
102
}
330
2A
100
AcDbProxyObject
 90
      499
 91
      501
 93
      428
310
42529A5D1D195C93D999914409028333333333333E33F0000000000000F9010790141107004050150A41D405064090741402480A0350
1001
ACAD
1000
AcDbSavedByObjectVersion
1070
     0
  0
ACAD_PROXY_OBJECT
  5
38
102
{ACAD_REACTORS
330
2A
102
}
330
2A
100
AcDbProxyObject
 90
      499
 91
      501
 93
      444
310
42D31A5B995C185D1D195C9B90E409028333333333333E33F0000000000000F9010790141107004050750841D405064090741402483A0350
1001
ACAD
1000
AcDbSavedByObjectVersion
1070
     0
  0
ACAD_PROXY_OBJECT
  5
3C
102
{ACAD_REACTORS
330
2A
102
}
330
2A
100
AcDbProxyObject
 90
      499
 91
      501
 93
      444
310
42D3DD995C9A185B99D3D999915409028333333333333E33F0000000000000F9010790141107004050150941D405064090741402480A0350
1001
ACAD
1000
AcDbSavedByObjectVersion
1070
     0
  0
ACAD_PROXY_OBJECT
  5
33
102
{ACAD_REACTORS
330
2A
102
}
330
2A
100
AcDbProxyObject
 90
      499
 91
      501
 93
      428
310
425499585B1A5CDD1A58D08409038333333333333E33F0000000000000F9010740A907004050150800405405064090740C02480A1B40
1001
ACAD
1000
AcDbSavedByObjectVersion
1070
     0
  0
ACAD_PROXY_OBJECT
  5
42
102
{ACAD_REACTORS
330
2A
102
}
330
2A
100
AcDbProxyObject
 90
      499
 91
      501
 93
      420
310
4194DA1859195911B40902404333333333333E33F0000000000000F9010740A41107004050150800405405064090840C02480A0B40
1001
ACAD
1000
AcDbSavedByObjectVersion
1070
     0
  0
ACAD_PROXY_OBJECT
  5
41
102
{ACAD_REACTORS
330
2A
102
}
330
2A
100
AcDbProxyObject
 90
      499
 91
      501
 93
      516
310
4454DA18591959081DDA5D1A08195919D95CD1A40902404333333333333E33F0000000000000F901074090142907004050250800405405064090740C02480A0B40
1001
ACAD
1000
AcDbSavedByObjectVersion
1070
     0
  0
ACAD_PROXY_OBJECT
  5
3E
102
{ACAD_REACTORS
330
2A
102
}
330
2A
100
AcDbProxyObject
 90
      499
 91
      501
 93
      532
310
4394DA1859195CC81BD98811DC985E5174090240C333333333333E33F0000000000000F901079024090741D01000000000000111010841D405064090740C02480A0340
1001
ACAD
1000
AcDbSavedByObjectVersion
1070
     0
  0
ACAD_PROXY_OBJECT
  5
3F
102
{ACAD_REACTORS
330
2A
102
}
330
2A
100
AcDbProxyObject
 90
      499
 91
      501
 93
      476
310
41D4DAD95D18DA1E51840502408333333333333E33F0000000000000F901079024090741D01000000000000111010B41D405064090741802480A0340
1001
ACAD
1000
AcDbSavedByObjectVersion
1070
     0
  0
ACAD_PROXY_OBJECT
  5
37
102
{ACAD_REACTORS
330
2A
102
}
330
2A
100
AcDbProxyObject
 90
      499
 91
      501
 93
      412
310
41D51A1A58DAD95B90D409028333333333333E33F0000000000000F9010790141107004050150C41D405064090741402480A0350
1001
ACAD
1000
AcDbSavedByObjectVersion
1070
     0
  0
ACAD_PROXY_OBJECT
  5
30
102
{ACAD_REACTORS
330
2A
102
}
330
2A
100
AcDbProxyObject
 90
      499
 91
      501
 93
      420
310
4255DA5C99599C985B595059028333333333333E33F0000000000000F90107901411070040501600405405064090740C02480A0340
1001
ACAD
1000
AcDbSavedByObjectVersion
1070
     0
  0
ACAD_PROXY_OBJECT
  5
40
102
{ACAD_REACTORS
330
2A
102
}
330
2A
100
AcDbProxyObject
 90
      499
 91
      501
 93
      404
310
41560B54985E51940902404000000000000E03F0000000000000F9010740501907004050150841D405064090740C02480A1B40
1001
ACAD
1000
AcDbSavedByObjectVersion
1070
     0
  0
XRECORD
  5
181
102
{ACAD_REACTORS
330
178
102
}
330
178
100
AcDbXrecord
 90
        0
  0
XRECORD
  5
197
102
{ACAD_REACTORS
330
178
102
}
330
178
100
AcDbXrecord
1000
DSTYLE
1002
{
1070
   279
 70
     2
1070
   340
340
11
1002
}
  0
XRECORD
  5
182
102
{ACAD_REACTORS
330
178
102
}
330
178
100
AcDbXrecord
  1
{D1B0E247-06F7-6270-F673-47B5D7B39675}
  0
XRECORD
  5
17B
102
{ACAD_REACTORS
330
178
102
}
330
178
100
AcDbXrecord
  1

  0
XRECORD
  5
180
102
{ACAD_REACTORS
330
178
102
}
330
178
100
AcDbXrecord
 90
        4
  0
XRECORD
  5
17D
102
{ACAD_REACTORS
330
178
102
}
330
178
100
AcDbXrecord
340
1A
  0
XRECORD
  5
17F
102
{ACAD_REACTORS
330
178
102
}
330
178
100
AcDbXrecord
 90
    10781
  0
XRECORD
  5
17E
102
{ACAD_REACTORS
330
178
102
}
330
178
100
AcDbXrecord
340
19
  0
XRECORD
  5
184
102
{ACAD_REACTORS
330
178
102
}
330
178
100
AcDbXrecord
 40
0.0
  0
XRECORD
  5
187
102
{ACAD_REACTORS
330
178
102
}
330
178
100
AcDbXrecord
340
0
  0
XRECORD
  5
18D
102
{ACAD_REACTORS
330
178
102
}
330
178
100
AcDbXrecord
 10
0.0
 20
0.0
 30
0.0
  0
XRECORD
  5
189
102
{ACAD_REACTORS
330
178
102
}
330
178
100
AcDbXrecord
 10
0.0
 20
0.0
 30
0.0
  0
XRECORD
  5
18C
102
{ACAD_REACTORS
330
178
102
}
330
178
100
AcDbXrecord
 10
0.0
 20
0.0
 30
0.0
  0
XRECORD
  5
18A
102
{ACAD_REACTORS
330
178
102
}
330
178
100
AcDbXrecord
 10
0.0
 20
0.0
 30
0.0
  0
XRECORD
  5
18B
102
{ACAD_REACTORS
330
178
102
}
330
178
100
AcDbXrecord
 10
0.0
 20
0.0
 30
0.0
  0
XRECORD
  5
188
102
{ACAD_REACTORS
330
178
102
}
330
178
100
AcDbXrecord
 10
0.0
 20
0.0
 30
0.0
  0
XRECORD
  5
185
102
{ACAD_REACTORS
330
178
102
}
330
178
100
AcDbXrecord
340
0
  0
XRECORD
  5
186
102
{ACAD_REACTORS
330
178
102
}
330
178
100
AcDbXrecord
 70
     0
  0
XRECORD
  5
17C
102
{ACAD_REACTORS
330
178
102
}
330
178
100
AcDbXrecord
  1

  0
XRECORD
  5
179
102
{ACAD_REACTORS
330
178
102
}
330
178
100
AcDbXrecord
 90
        1
  0
XRECORD
  5
17A
102
{ACAD_REACTORS
330
178
102
}
330
178
100
AcDbXrecord
 90
       70
  0
XRECORD
  5
190
102
{ACAD_REACTORS
330
178
102
}
330
178
100
AcDbXrecord
340
0
  0
XRECORD
  5
196
102
{ACAD_REACTORS
330
178
102
}
330
178
100
AcDbXrecord
 10
0.0
 20
0.0
 30
0.0
  0
XRECORD
  5
192
102
{ACAD_REACTORS
330
178
102
}
330
178
100
AcDbXrecord
 10
0.0
 20
0.0
 30
0.0
  0
XRECORD
  5
195
102
{ACAD_REACTORS
330
178
102
}
330
178
100
AcDbXrecord
 10
0.0
 20
0.0
 30
0.0
  0
XRECORD
  5
193
102
{ACAD_REACTORS
330
178
102
}
330
178
100
AcDbXrecord
 10
0.0
 20
0.0
 30
0.0
  0
XRECORD
  5
194
102
{ACAD_REACTORS
330
178
102
}
330
178
100
AcDbXrecord
 10
0.0
 20
0.0
 30
0.0
  0
XRECORD
  5
191
102
{ACAD_REACTORS
330
178
102
}
330
178
100
AcDbXrecord
 10
0.0
 20
0.0
 30
0.0
  0
XRECORD
  5
18E
102
{ACAD_REACTORS
330
178
102
}
330
178
100
AcDbXrecord
340
0
  0
XRECORD
  5
18F
102
{ACAD_REACTORS
330
178
102
}
330
178
100
AcDbXrecord
 70
     0
  0
XRECORD
  5
183
102
{ACAD_REACTORS
330
178
102
}
330
178
100
AcDbXrecord
  1
{FAEB1C32-E019-11D5-929B-00C0DF256EC4}
  0
DICTIONARYVAR
  5
1A1
102
{ACAD_REACTORS
330
198
102
}
330
198
100
DictionaryVariables
280
     0
  1
1:1
  0
DICTIONARYVAR
  5
19D
102
{ACAD_REACTORS
330
198
102
}
330
198
100
DictionaryVariables
280
     0
  1
2
  0
DICTIONARYVAR
  5
19E
102
{ACAD_REACTORS
330
198
102
}
330
198
100
DictionaryVariables
280
     0
  1
1
  0
DICTIONARYVAR
  5
1A2
102
{ACAD_REACTORS
330
198
102
}
330
198
100
DictionaryVariables
280
     0
  1
1
  0
DICTIONARY
  5
1A5
330
45
100
AcDbDictionary
280
     1
  3
ACAD_XREC_ROUNDTRIP
360
1A6
  0
DICTIONARY
  5
1A3
330
44
100
AcDbDictionary
280
     1
  3
ACAD_XREC_ROUNDTRIP
360
1A4
  0
DICTIONARY
  5
1A7
330
46
100
AcDbDictionary
280
     1
  3
ACAD_XREC_ROUNDTRIP
360
1A8
  0
XRECORD
  5
1A6
102
{ACAD_REACTORS
330
1A5
102
}
330
1A5
100
AcDbXrecord
102
MATERIAL
148
0.0
149
0.0
149
0.0
 93
        0
 94
      127
282
     0
 72
     1
 77
     1
171
     1
175
     1
179
     1
273
     0
  0
XRECORD
  5
1A4
102
{ACAD_REACTORS
330
1A3
102
}
330
1A3
100
AcDbXrecord
102
MATERIAL
148
0.0
149
0.0
149
0.0
 93
        0
 94
      127
282
     0
 72
     1
 77
     1
171
     1
175
     1
179
     1
273
     0
  0
XRECORD
  5
1A8
102
{ACAD_REACTORS
330
1A7
102
}
330
1A7
100
AcDbXrecord
102
MATERIAL
148
0.0
149
0.0
149
0.0
 93
        0
 94
      127
282
     0
 72
     1
 77
     1
171
     1
175
     1
179
     1
273
     0
  0
ENDSEC
  0
EOF
